<svg xmlns="http://www.w3.org/2000/svg" width="296" height="295" fill="none"><path fill="#5F77EA" d="M223.127 37.513c22.698 16.623 40.538 39.321 52.293 66.274 11.962 26.952 17.84 58.17 8.103 83.302-9.529 25.132-34.452 44.387-59.99 59.585-25.329 15.406-51.272 26.952-77.621 27.566-26.349.603-53.104-9.934-74.387-26.546-21.48-16.624-37.5-39.519-49.255-66.077-11.754-26.546-19.254-56.942-16.009-88.763 3.443-31.82 17.435-65.264 42.566-80.879C73.96-3.628 110.232-1.6 141.855 4.683c31.612 6.086 58.772 16.415 81.272 32.83Z"/><path fill="#C1CAFF" d="M224.619 58.248c22.698 16.623 40.538 39.321 52.292 66.274 11.963 26.952 17.84 58.17 8.103 83.302-9.528 25.132-34.452 44.387-59.989 59.585-25.329 15.406-51.273 26.952-77.622 27.566-26.349.603-53.103-9.934-74.386-26.546-21.48-16.624-37.5-39.519-49.255-66.077-11.744-26.546-19.244-56.953-16.01-88.774 3.444-31.82 17.435-65.264 42.567-80.868 25.132-15.603 61.415-13.575 93.027-7.292 31.613 6.086 58.773 16.415 81.273 32.83Z"/><path fill="#C5846F" d="M133.115 202.835c2.281-3.443 6.766-5.132 9.803-7.972 4.189-3.914 7.774-8.487 11.162-13.092 15.154-20.604 30.088-50.462 30.088-50.462s-28.52-82.151-32.84-81.054c-4.09 1.041-34.298 50.023-39.189 54.069-3.443 2.851-5.219-1.086-5.307-1.217-1.864-2.709 9.156-37.293 1.908-60.989-1.14-3.717-4.079-5.438-5.987-5.658-4.2-.482-5.197 2.818-5.427 3.498-.527 1.58-5.527 21.163-7.007 25.516-5.154 15.143-7.5 32.27-12.665 47.83-3.355 10.121-5.976 66.921-5.976 66.921l-22.95 64.069c7.194 9.025 15.253 17.139 24.288 24.124 12.27 9.583 26.36 17.138 41.141 21.7 3.859-21.152 12.873-67.14 16.107-80.474.582-2.412 1.492-4.769 2.851-6.831v.022Z"/><path fill="#A9745B" d="M109.518 46.132s-2.664 31.448-6.535 50.078c-1.689 9.43 6.053 15 6.053 15s11.371 6.777 8.465 33.148c-2.906 26.371-3.388 41.372 1.206 47.655 4.594 6.294 9.232 10.022 14.419 10.822.822-.658 1.02-2.006 5.658-4.715 4.638-2.708 11.59-11.206 11.59-11.206l-14.298-1.163-7.533-59.519-19.025-80.1Z"/><path fill="#C5846F" d="m214.902 25.767-.008-.008c-3.916-4.24-10.527-4.502-14.766-.586l-34.763 32.113c-4.24 3.916-4.502 10.527-.586 14.766l.008.008c3.916 4.24 10.527 4.502 14.766.586l34.763-32.113c4.24-3.916 4.502-10.527.586-14.766Z"/><path fill="#172A8A" d="M127.349 15.155h57.347c8.684 0 15.745 7.05 15.745 15.746v140.026c0 9.298-7.544 16.842-16.842 16.842h-57.95c-9.331 0-16.897-7.577-16.897-16.897V33.752c0-10.263 8.333-18.608 18.608-18.608l-.011.011Z"/><path fill="#C7D0F3" d="M195.891 28.379v145.014c0 4.924-3.992 8.948-8.882 8.948h-64.847c-4.879 0-8.882-4.024-8.882-8.948V28.379c0-4.923 3.992-8.948 8.882-8.948h64.847c4.879 0 8.882 4.025 8.882 8.948Z"/><path fill="#E3E8FF" d="M187.009 19.431 122.962 182.33h-.8c-4.879 0-8.882-4.024-8.882-8.947V28.379c0-4.923 3.992-8.948 8.882-8.948h64.847Z"/><path fill="#172A8A" d="M167.821 16.164h-26.469a4.331 4.331 0 0 0 0 8.663h26.469a4.331 4.331 0 0 0 0-8.663Z"/><path fill="#7080EA" d="m148.567 46.768 1.327-2.665a1.066 1.066 0 0 1 1.162-.57l2.873.57a.714.714 0 0 1 .571.691v.614c0 .296-.187.56-.472.658l-4.616 1.535-.845-.844v.01Z"/><path fill="#000553" d="M122.438 57.207h3.782v3.805c0 .175-.065.34-.186.46a.647.647 0 0 1-.46.187h-2.479a.645.645 0 0 1-.46-.187.7.7 0 0 1-.197-.46v-3.816.01ZM148.096 57.042h3.783v3.805a.642.642 0 0 1-.044.252.545.545 0 0 1-.143.209.653.653 0 0 1-.46.197h-2.478a.647.647 0 0 1-.461-.186.645.645 0 0 1-.186-.46v-3.817h-.011Z"/><path fill="#7080EA" d="M150.355 53.095h-26.403c-1.108 0-1.853-1.174-1.338-2.15l5.142-10.395a4.07 4.07 0 0 1 1.525-1.611 4.184 4.184 0 0 1 2.138-.593h11.469a4.144 4.144 0 0 1 3.663 2.204l5.142 10.395c.515.976-.241 2.15-1.338 2.15Z"/><path fill="#7080EA" d="M122.438 57.195v-6.294c0-.405.076-.8.23-1.173.153-.373.384-.713.669-.998.285-.285.625-.515.997-.669.373-.153.768-.23 1.174-.23h23.289c.812 0 1.601.318 2.171.9.582.57.9 1.359.9 2.17v6.294c0 .22-1.393 1.612-1.612 1.612H124.06"/><path fill="#fff" d="M148.14 45.682h-21.985l1.996-4.254c.537-1.316 1.71-2.303 3.158-2.303h11.678c1.447 0 2.598.866 3.158 2.303l1.995 4.254Z"/><path fill="#4462D8" d="M124.127 50.99c.044.613.132 1.194.132 1.194 0 .428.318.79.746.834v-2.215c0-.12 0-.241.021-.362h-.361a.505.505 0 0 0-.538.548Z"/><path fill="#C0C9FF" d="M145.574 52.82a.238.238 0 0 0 .22.362l3.486-.164a.836.836 0 0 0 .768-.833s.088-.57.132-1.196a.524.524 0 0 0-.538-.559l-1.524.055c-.976-.055-2.072 1.58-2.544 2.336Z"/><path fill="#304280" d="M140.925 53.347h-7.544c-1.141 0-2.171-.68-2.555-1.7l-.461-1.217h13.575l-.46 1.217c-.384 1.02-1.404 1.7-2.555 1.7Z"/><path fill="#000553" d="M143.48 50.474c-.384 1.02-1.404 1.7-2.555 1.7h-7.544c-1.141 0-2.171-.68-2.555-1.7l-.022-.044h-.439l.461 1.217c.384 1.02 1.403 1.7 2.555 1.7h7.544c1.151 0 2.171-.68 2.555-1.7l.46-1.217h-.438l-.022.044Z"/><path fill="#172A8A" d="M122.438 55.266v1.853c0 .932.756 1.689 1.688 1.689h26.042a1.69 1.69 0 0 0 1.689-1.689v-1.853h-29.43.011Z"/><path fill="#C0C9FF" d="M128.732 52.82c-.461-.756-1.568-2.39-2.544-2.335l-1.163-.044h-.361a.504.504 0 0 0-.538.548c.044.615.132 1.196.132 1.196 0 .427.318.79.746.833h.021l3.487.165c.187 0 .318-.198.22-.362Z"/><path fill="#7080EA" d="m125.683 46.834-1.327-2.665a1.066 1.066 0 0 0-1.162-.57l-2.873.57a.714.714 0 0 0-.57.69v.615c0 .296.186.56.471.658l4.617 1.535.844-.844v.01Z"/><path fill="#4462D8" d="M186.275 41.34h-22.38a1.47 1.47 0 0 0 0 2.938h22.38a1.47 1.47 0 0 0 0-2.938ZM172.283 47.228h-8.388a1.47 1.47 0 0 0 0 2.939h8.388a1.47 1.47 0 1 0 0-2.939ZM168.204 53.117h-4.309a1.47 1.47 0 0 0 0 2.938h4.309a1.47 1.47 0 1 0 0-2.938ZM186.988 80.902h-22.38a1.47 1.47 0 0 0 0 2.939h22.38a1.47 1.47 0 0 0 0-2.939ZM172.996 86.79h-8.388a1.47 1.47 0 0 0 0 2.94h8.388a1.47 1.47 0 1 0 0-2.94ZM168.917 92.679h-4.309a1.47 1.47 0 0 0 0 2.939h4.309a1.47 1.47 0 1 0 0-2.939Z"/><path fill="#7080EA" d="m148.567 86.177 1.327-2.665a1.066 1.066 0 0 1 1.162-.57l2.873.57a.715.715 0 0 1 .571.69v.615c0 .296-.187.56-.472.658l-4.616 1.535-.845-.844v.01Z"/><path fill="#000553" d="M122.438 96.605h3.782v3.805c0 .175-.065.34-.186.46a.645.645 0 0 1-.46.187h-2.479a.644.644 0 0 1-.46-.187.698.698 0 0 1-.197-.46v-3.816.01ZM148.096 96.44h3.783v3.805a.637.637 0 0 1-.044.252.546.546 0 0 1-.143.209.652.652 0 0 1-.46.197h-2.478a.65.65 0 0 1-.461-.186.645.645 0 0 1-.186-.461V96.44h-.011Z"/><path fill="#F27E7E" d="M150.355 92.493h-26.403c-1.108 0-1.853-1.174-1.338-2.15l5.142-10.395a4.07 4.07 0 0 1 1.525-1.611 4.08 4.08 0 0 1 2.138-.593h11.469a4.144 4.144 0 0 1 3.663 2.204l5.142 10.395c.515.976-.241 2.15-1.338 2.15Z"/><path fill="#F27E7E" d="M122.438 96.593V90.3c0-.406.076-.8.23-1.173.153-.373.384-.713.669-.998.285-.285.625-.515.997-.669.373-.153.768-.23 1.174-.23h23.289c.812 0 1.601.318 2.171.9.582.57.9 1.359.9 2.17v6.294c0 .22-1.393 1.612-1.612 1.612H124.06"/><path fill="#fff" d="M148.14 85.08h-21.985l1.996-4.254c.537-1.316 1.71-2.303 3.158-2.303h11.678c1.447 0 2.598.866 3.158 2.303l1.995 4.254Z"/><path fill="#C0C9FF" d="M128.733 92.23c-.461-.757-1.568-2.391-2.544-2.336l-1.163-.044h-.361a.505.505 0 0 0-.538.548c.044.614.132 1.195.132 1.195 0 .428.318.79.746.834h.021l3.487.164c.187 0 .318-.197.22-.362ZM145.574 92.23a.238.238 0 0 0 .22.361l3.486-.164a.836.836 0 0 0 .768-.834s.088-.57.132-1.195a.524.524 0 0 0-.538-.559l-1.524.055c-.976-.055-2.072 1.579-2.544 2.335Z"/><path fill="#4462D8" d="M140.925 92.745h-7.544c-1.141 0-2.171-.68-2.555-1.7l-.461-1.217h13.575l-.46 1.217c-.384 1.02-1.404 1.7-2.555 1.7Z"/><path fill="#000553" d="M143.48 89.872c-.384 1.02-1.404 1.7-2.555 1.7h-7.544c-1.141 0-2.171-.68-2.555-1.7l-.022-.044h-.439l.461 1.217c.384 1.02 1.403 1.7 2.555 1.7h7.544c1.151 0 2.171-.68 2.555-1.7l.46-1.217h-.438l-.022.044Z"/><path fill="#172A8A" d="M122.438 94.664v1.853c0 .932.756 1.688 1.688 1.688h26.042a1.69 1.69 0 0 0 1.689-1.688v-1.853h-29.43.011Z"/><path fill="#F27E7E" d="m125.683 86.242-1.327-2.664a1.066 1.066 0 0 0-1.162-.57l-2.873.57a.714.714 0 0 0-.57.69v.615c0 .296.186.559.471.657l4.617 1.536.844-.845v.011Z"/><path fill="#7080EA" d="m148.567 125.575 1.327-2.665a1.065 1.065 0 0 1 1.162-.57l2.873.57a.715.715 0 0 1 .571.691v.614a.696.696 0 0 1-.472.658l-4.616 1.535-.845-.844v.011Z"/><path fill="#000553" d="M122.438 136.014h3.782v3.805a.645.645 0 0 1-.186.46.645.645 0 0 1-.46.187h-2.479a.644.644 0 0 1-.46-.187.7.7 0 0 1-.197-.46v-3.816.011ZM148.096 135.849h3.783v3.805a.64.64 0 0 1-.044.252.546.546 0 0 1-.143.209.652.652 0 0 1-.46.197h-2.478a.65.65 0 0 1-.461-.186.647.647 0 0 1-.186-.461v-3.816h-.011Z"/><path fill="#7080EA" d="M150.355 131.901h-26.403c-1.108 0-1.853-1.173-1.338-2.149l5.142-10.395a4.072 4.072 0 0 1 1.525-1.612 4.192 4.192 0 0 1 2.138-.592h11.469c.757 0 1.491.209 2.138.592a4.145 4.145 0 0 1 1.525 1.612l5.142 10.395c.515.976-.241 2.149-1.338 2.149Z"/><path fill="#7080EA" d="M122.438 136.002v-6.294c0-.405.076-.8.23-1.173.153-.373.384-.713.669-.998.285-.285.625-.515.997-.669.373-.153.768-.23 1.174-.23h23.289c.812 0 1.601.318 2.171.899.582.571.9 1.36.9 2.171v6.294c0 .22-1.393 1.612-1.612 1.612H124.06"/><path fill="#fff" d="M148.14 124.489h-21.985l1.996-4.254c.537-1.316 1.71-2.303 3.158-2.303h11.678c1.447 0 2.598.866 3.158 2.303l1.995 4.254Z"/><path fill="#4462D8" d="M124.127 129.796c.044.614.132 1.195.132 1.195 0 .428.318.79.746.833v-2.214c0-.121 0-.242.021-.362h-.361a.504.504 0 0 0-.538.548Z"/><path fill="#C0C9FF" d="M145.574 131.627a.238.238 0 0 0 .22.362l3.486-.164a.836.836 0 0 0 .768-.834s.088-.57.132-1.195a.524.524 0 0 0-.538-.559l-1.524.055c-.976-.055-2.072 1.579-2.544 2.335Z"/><path fill="#304280" d="M140.925 132.143h-7.544c-1.141 0-2.171-.68-2.555-1.7l-.461-1.217h13.575l-.46 1.217c-.384 1.02-1.404 1.7-2.555 1.7Z"/><path fill="#000553" d="M143.48 129.281c-.384 1.02-1.404 1.7-2.555 1.7h-7.544c-1.141 0-2.171-.68-2.555-1.7l-.022-.044h-.439l.461 1.217c.384 1.02 1.403 1.7 2.555 1.7h7.544c1.151 0 2.171-.68 2.555-1.7l.46-1.217h-.438l-.022.044Z"/><path fill="#172A8A" d="M122.438 134.073v1.853c0 .932.756 1.688 1.688 1.688h26.042a1.69 1.69 0 0 0 1.689-1.688v-1.853h-29.43.011Z"/><path fill="#C0C9FF" d="M128.732 131.627c-.461-.756-1.568-2.39-2.544-2.335l-1.163-.044h-.361a.504.504 0 0 0-.538.548c.044.614.132 1.195.132 1.195 0 .428.318.79.746.834h.021l3.487.164c.187 0 .318-.197.22-.362Z"/><path fill="#7080EA" d="m125.683 125.641-1.327-2.665a1.065 1.065 0 0 0-1.162-.57l-2.873.57a.714.714 0 0 0-.57.691v.614c0 .296.186.559.471.658l4.617 1.535.844-.844v.011Z"/><path fill="#C5846F" d="M205.322 84.523a9.245 9.245 0 0 0-7.024-17.101l-14.565 5.983a9.243 9.243 0 0 0-5.038 12.062 9.243 9.243 0 0 0 12.062 5.038l14.565-5.982ZM208.046 107.124a9.244 9.244 0 0 0 5.038-12.063 9.243 9.243 0 0 0-12.062-5.038l-9.037 3.712a9.244 9.244 0 1 0 7.024 17.101l9.037-3.712Z"/><path fill="#AC806B" d="m202.565 125.439-8.063 3.312a7.49 7.49 0 0 0 5.691 13.855l8.063-3.312a7.489 7.489 0 0 0 4.082-9.773 7.488 7.488 0 0 0-9.773-4.082Z"/><path fill="#C5846F" d="M246.648 202.462c3.18-22.227.702-35.725-1.053-46.986-1.952-12.478-6.535-27.27-8.706-35.681-1.217-4.704-5.428-7.96-10.209-7.105-4.32.778-7.324 4.594-7.225 8.849l-.077-.515c-.888-5.659-6.195-9.529-11.853-8.641a10.382 10.382 0 0 0-8.674 8.893c-1.842-4.211-6.348-6.832-11.096-6.086a10.356 10.356 0 0 0-8.75 10.11l-12.972-51.843a9.235 9.235 0 0 0-10.823-6.799c-4.89 1.009-8.092 5.735-7.214 10.647l14.824 83.665 1.294 6.798s-6.36-4.671-7.16-5.318c-.801-.647-13.344-9.167-20.132-10.231-6.787-1.063-12.028 3.619-13.191 7.303-1.162 3.685 1.897 4.825 6.842 8.422 6.557 4.682 9.43 8.41 21.273 21.963 11.842 13.564 21.557 21.228 27.938 25.285 6.382 4.058 7.808 9.968 7.808 9.968l11.129 56.536c8.882-4.112 17.698-8.969 26.448-14.287 11.875-7.073 23.629-15.023 33.75-24.036-3.202-8.959-6.798-19.189-9.057-26.119-1.623-4.967-3.761-10-3.081-14.803l-.033.011Z"/><path fill="#A9745B" d="M183.961 212.528c-6.382-4.057-16.097-11.733-27.939-25.286-11.842-13.564-14.704-17.281-21.272-21.963-4.946-3.586-8.005-4.737-6.842-8.421.416-1.327 1.37-2.775 2.719-4.046-3.662 1.337-6.261 4.232-7.04 6.699-1.162 3.685 1.897 4.825 6.842 8.421 6.558 4.683 9.43 8.411 21.273 21.964 11.842 13.564 21.557 21.228 27.938 25.285 6.382 4.058 7.808 9.968 7.808 9.968l11.129 56.536c1.48-.68 2.95-1.392 4.43-2.116l-11.239-57.085s-1.426-5.91-7.807-9.967v.011ZM164.125 167.955c2.138 1.59 4.276-2.84 4.276-2.84l-1.294-6.799-14.825-83.664c-.515-2.928.417-5.779 2.281-7.83-4.539 1.273-7.434 5.78-6.601 10.483l16.163 90.639v.011Z"/></svg>