<svg xmlns="http://www.w3.org/2000/svg" width="296" height="295" fill="none"><path fill="#5F77ED" d="M53.501 67.225c16.7-27.108 42.908-45.675 70.495-56.64 27.587-10.964 56.448-14.68 78.52-5.027 46.776 20.128 55.356 77.276 52.455 122.416-3.017 46.863-17.476 115.291-63.946 137.947-27.587 13.454-66.339 5.487-96.31-14.919-29.972-20.406-51.096-53.088-58.153-87.225-7-33.965.191-69.615 16.949-96.551h-.01Z"/><path fill="#C3CAFA" d="M49.92 115.908c9.001-30.7 29.474-55.644 53.307-73.589 23.834-17.945 50.818-29.187 74.776-25.692 50.674 7.106 74.143 60.222 83.298 104.749 9.499 46.222 13.626 116.383-25.414 150.654-23.173 20.348-62.844 22.905-97.307 11.079-34.452-11.835-63.6-37.91-79.486-69.127-15.79-31.063-18.27-67.527-9.174-98.074Z"/><mask id="a" width="224" height="276" x="44" y="15" maskUnits="userSpaceOnUse" style="mask-type:luminance"><path fill="#fff" d="M49.92 115.908c9.001-30.7 29.474-55.644 53.308-73.589 23.833-17.945 50.817-29.187 74.775-25.692 50.674 7.106 74.143 60.222 83.298 104.749 9.499 46.222 13.626 116.383-25.414 150.654-23.173 20.348-62.844 22.905-97.307 11.079-34.452-11.835-63.6-37.91-79.486-69.127-15.79-31.063-18.27-67.527-9.174-98.074Z"/></mask><g mask="url(#a)"><path fill="#95A6F9" d="M428.125 65.866 327.447 7.569c-5.467-3.17-15.033-2.787-21.353.852L94.8 130.023c-6.33 3.638-7.019 9.154-1.551 12.324l100.677 58.296c5.468 3.17 15.034 2.787 21.353-.852L426.574 78.189c6.329-3.638 7.018-9.154 1.551-12.323Z"/><path fill="#4F62D5" d="m80.294 103.239 5.822 6.828c.373-.249.756-.498 1.168-.738L301.623-14.024c1.254-.728 2.614-1.341 4.031-1.868a33.79 33.79 0 0 1 6.167-1.647c.393-.067.776-.124 1.168-.182 6.349-.861 12.879-.047 17.361 2.547l103.301 59.82c2.087-2.289 6.473-7.124 6.473-7.124l-.048 14.87c.057 1.255-.24 2.548-.891 3.812-.22.42-.469.842-.766 1.254-1.178 1.657-2.978 3.246-5.381 4.625L218.699 185.437c-.546.316-1.111.613-1.686.891-.143.067-.296.124-.45.201-.44.201-.89.402-1.35.584-.143.057-.297.105-.44.162-.479.182-.948.355-1.437.518-.114.038-.239.067-.354.105a28.8 28.8 0 0 1-1.609.46 8.667 8.667 0 0 1-.239.057c-.584.144-1.178.278-1.781.393a.532.532 0 0 0-.124.019c-.642.124-1.284.23-1.925.316h-.029c-6.329.852-12.841.038-17.312-2.557L85.187 125.915c-3.438-1.992-5.046-4.683-4.931-7.479h-.02l.039-15.197h.019Z"/><path fill="#232E87" d="M435.173 30.215 330.397-30.456c-7.354-4.261-20.223-3.744-28.726 1.149L87.331 94.047c-8.512 4.893-9.44 12.324-2.087 16.585l104.776 60.671c7.354 4.262 20.223 3.745 28.726-1.149L433.085 46.801c8.513-4.894 9.442-12.324 2.088-16.586Z"/><path fill="#232E87" d="M189.943 172.922 85.168 112.25c-3.792-2.192-5.363-5.238-4.846-8.34.182 2.518 1.8 4.903 4.932 6.713l104.775 60.671c7.354 4.261 20.224 3.744 28.727-1.149L433.095 46.791c4.118-2.375 6.444-5.334 6.933-8.245.249 3.41-2.126 7.058-7.009 9.873l-214.34 123.354c-8.512 4.893-21.372 5.41-28.726 1.149h-.01Z"/><path fill="#fff" d="M427.101 32.61 326.424-25.698c-5.468-3.17-15.034-2.787-21.353.852L93.776 96.757c-6.329 3.639-7.018 9.154-1.55 12.324l100.677 58.296c5.467 3.17 15.033 2.787 21.353-.852L425.55 44.924c6.329-3.64 7.019-9.155 1.551-12.324v.01Z"/></g><path fill="#F0E298" d="m99.275 203.571 97.529 56.445 10.13-17.503-97.529-56.446-10.13 17.504Z"/><path fill="#F5F2DE" d="M214.121 270.077c5.602-9.671 2.298-22.053-7.373-27.645-9.671-5.602-22.052-2.298-27.644 7.373l35.027 20.272h-.01Z"/><path fill="#E9D46A" d="M206.748 242.432a20.866 20.866 0 0 1 2.825 2.001c-9.068-3.351-19.496.173-24.504 8.829l-5.965-3.457c5.601-9.671 17.973-12.975 27.644-7.373Z"/><path fill="#F0E298" d="m135.19 223.712-19.084 32.979c-7.057 12.199-2.892 27.807 9.298 34.874 12.199 7.057 27.807 2.892 34.874-9.298l19.084-32.978-44.172-25.568v-.009Z"/><path fill="#E9D46A" d="M122.206 261.411c-2.796 11.577-2.739 23.853 5.927 31.514-2.221-1.006-3.418-1.753-4.912-2.624-12.199-7.057-16.365-22.675-9.298-34.875l9.097-35.698-25.912-17.418 10.131-17.504 38.465 22.148s-16.948 27.358-23.479 54.457h-.019Z"/><path fill="#F0E298" d="M194.118 151.128c-6.875-3.974-12.467-2.078-21.487 4.519l18.739 10.85 2.183 1.216c1.887.948 4.185 1.522 6.636 1.723 2.873-6.674.374-14.583-6.071-18.318v.01Z"/><path fill="#F5F2DE" d="m181.498 143.821.019-.028-72.621-41.903c-.038-.029-.086-.048-.125-.067l-.182-.106s-.057-.029-.086-.038c-8.943-4.826-18.71 1.513-25.183 7.689-4.664 4.453-8.101 10.668-11.577 16.02-5.937 9.155-11.596 18.491-17.102 27.913-7.555 12.918-15.723 25.644-21.047 39.701-4.29 11.347-7.335 25.079-2.96 36.857 1.15 3.102 2.854 5.985 5.085 8.436.585.651 1.025 1.12 1.427 1.523.02.373.02.603-.029.641l45.044 26.075 43.559 25.213c-.096-.077-.211-.106-.306-.182-1.791-1.36-2.26-1.801-3.888-3.591-2.231-2.452-3.936-5.343-5.085-8.446-4.376-11.788-1.331-25.529 2.959-36.876 5.324-14.067 13.502-26.802 21.057-39.729 5.515-9.423 11.175-18.769 17.111-27.923 2.394-3.687 4.826-7.335 7.46-10.849 4.778-6.378 10.59-12.353 18.672-14.124 2.892-.632 5.927-.604 8.733.392.804.287 1.58.642 2.317 1.073l-13.252-7.671Z"/><path fill="#E5C943" d="M129.958 173.291a1.998 1.998 0 1 0-2 3.456l8.089 4.682a2 2 0 0 0 2.732-.726 2 2 0 0 0-.732-2.73l-8.089-4.682ZM128.587 185.314a1.998 1.998 0 1 0-2 3.456l3.903 2.259c.957.554 2.18.229 2.732-.725a1.999 1.999 0 0 0-.732-2.731l-3.903-2.259ZM116.744 191.295a1.997 1.997 0 1 0-2 3.456l10.177 5.89c.957.554 2.18.229 2.732-.725a1.999 1.999 0 0 0-.732-2.731l-10.177-5.89ZM108.054 199.086a2 2 0 0 0-2.733.726 2 2 0 0 0 .732 2.73l13.311 7.703a1.999 1.999 0 0 0 2.732-.725 2 2 0 0 0-.732-2.731l-13.31-7.703ZM108.771 212.318a2 2 0 0 0-2.732.726 2 2 0 0 0 .732 2.73l7.045 4.077c.956.554 2.18.229 2.732-.725a2 2 0 0 0-.732-2.731l-7.045-4.077ZM78.198 143.337a2 2 0 0 0-2.732.726 2 2 0 0 0 .732 2.731l12.266 7.098c.957.554 2.18.229 2.732-.725a2 2 0 0 0-.732-2.731l-12.266-7.099ZM72.648 152.942a2 2 0 0 0-2.732.726 1.998 1.998 0 0 0 .732 2.73l36.317 21.019a2 2 0 0 0 2.732-.726 2 2 0 0 0-.732-2.73l-36.317-21.019ZM67.087 162.552a1.999 1.999 0 0 0-2.732.725 2 2 0 0 0 .732 2.731l23.769 13.756c.956.554 2.18.229 2.732-.726a1.999 1.999 0 0 0-.732-2.73l-23.77-13.756ZM61.522 172.157a1.999 1.999 0 0 0-2.732.725 2 2 0 0 0 .732 2.731l19.584 11.334a2 2 0 0 0 2.732-.726 1.998 1.998 0 0 0-.732-2.73l-19.584-11.334ZM55.966 181.757a1.999 1.999 0 0 0-2.733.726 1.998 1.998 0 0 0 .733 2.73l23.769 13.756c.956.554 2.18.229 2.732-.725a2 2 0 0 0-.732-2.731l-23.77-13.756ZM118.139 120.768a2 2 0 0 0-2.733.725 2 2 0 0 0 .732 2.731l19.584 11.334a1.998 1.998 0 1 0 2-3.456l-19.583-11.334ZM104.949 124.132a2 2 0 0 0-2.732.726 1.998 1.998 0 0 0 .732 2.73l36.441 21.09c.956.554 2.18.229 2.732-.725a2 2 0 0 0-.732-2.731l-36.441-21.09Z"/><path stroke="#E5C943" stroke-linecap="round" stroke-miterlimit="10" stroke-width="1.5" d="m149.966 169.321-2.48-1.436M142.469 164.984l-57.702-33.4M82.257 130.138l-2.48-1.446M112.104 234.743l-2.48-1.446M104.607 230.395l-57.703-33.4M44.396 195.549l-2.48-1.436"/><path fill="#E5C943" d="M45.062 213.873a1.999 1.999 0 0 0-2.732.725 2 2 0 0 0 .732 2.731l23.77 13.756c.956.554 2.18.229 2.731-.726a1.998 1.998 0 0 0-.732-2.73l-23.769-13.756ZM45.311 223.848a2 2 0 0 0-2.732.726 1.998 1.998 0 0 0 .732 2.73l13.31 7.704a2 2 0 0 0 2.733-.726 1.998 1.998 0 0 0-.732-2.73l-13.31-7.704Z"/><path fill="#1E2772" d="M156.046 100.683c.584.354.536.938-.106 1.312-.641.373-1.637.392-2.221.048l-8.197-4.913c-.584-.354-.536-.938.105-1.321.642-.383 1.647-.393 2.232-.038l8.196 4.912h-.009ZM173.559 111.178c.585.354.537.938-.105 1.312-.642.373-1.637.392-2.221.048l-8.197-4.913c-.584-.354-.537-.938.105-1.321s1.647-.393 2.231-.039l8.197 4.913h-.01ZM191.062 121.663c.594.354.536.939-.105 1.322-.642.383-1.638.392-2.231.038l-8.197-4.912c-.584-.355-.536-.939.105-1.322.642-.383 1.647-.392 2.231-.038l8.197 4.912ZM208.577 132.158c.584.355.536.939-.106 1.322-.641.383-1.647.392-2.231.038l-8.196-4.912c-.585-.355-.537-.939.105-1.322.641-.383 1.647-.392 2.231-.038l8.197 4.912Z"/><path fill="#F0E298" d="M184.839 89.355c-.125.096-.269.182-.422.278l-2.173 1.264-9.509-5.698 2.624-1.522 9.489 5.688-.009-.01ZM181.746 91.194l-2.174 1.263a5.575 5.575 0 0 1-.478.24l-9.49-5.688 2.624-1.523 9.509 5.698.009.01ZM178.499 92.936c-1.915.67-4.328.565-5.841-.344l-6.214-3.725 2.671-1.552 9.394 5.631-.01-.01Z"/><path fill="#4F62D5" d="M224.797 104.992c-2.413-1.369-6.358-1.312-9.02.115l-75.388.938-8.321-4.989c-2.5-1.503-2.298-4.012.44-5.611l42.142-24.542c2.748-1.6 7.009-1.686 9.509-.182l56.859 34.07-16.24.201h.019Zm-46.728-23.441-.393-.24c-1.819-1.091-4.922-1.034-6.913.134l-4.855 2.825c-1.992 1.159-2.145 2.988-.316 4.08l.392.239 12.085-7.038Zm4.807-5.813c-.757-.45-2.05-.43-2.883.058-.833.488-.89 1.245-.134 1.704l10.6 6.349c.757.45 2.05.43 2.883-.058.833-.488.89-1.244.134-1.704l-10.6-6.349Zm-10.218 16.854c1.523.91 3.926 1.015 5.841.344l-9.393-5.63-2.672 1.551 6.215 3.725M185.241 89c1.158-1.12 1.015-2.547-.508-3.457l-6.214-3.725-2.672 1.551 9.394 5.63Zm-3.007 1.886 2.174-1.264c.153-.086.297-.182.421-.278l-9.489-5.688-2.624 1.523 9.508 5.697m-2.671 1.561 2.174-1.264-9.509-5.697-2.624 1.522 9.49 5.688c.162-.076.325-.153.478-.24m-25.854 9.586c.585.354 1.58.326 2.222-.048.642-.373.699-.967.105-1.312l-8.196-4.912c-.584-.354-1.59-.335-2.231.038-.642.374-.69.967-.106 1.322l8.197 4.912"/><path fill="#1E2772" d="M193.476 82.097c.757.45.699 1.216-.134 1.704-.833.489-2.126.508-2.882.058l-10.6-6.35c-.757-.45-.699-1.215.134-1.704.833-.488 2.126-.507 2.882-.057l10.6 6.349Z"/><path fill="#F0E298" d="m178.069 81.55-12.085 7.039-.392-.24c-1.82-1.091-1.676-2.92.316-4.079l4.855-2.825c1.991-1.158 5.094-1.225 6.913-.134l.393.24ZM184.743 85.553c1.522.91 1.666 2.337.507 3.457l-9.394-5.63 2.672-1.552 6.215 3.725Z"/><path fill="#DB7D7D" d="M224.903 105.059c1.101.661 1.666 1.513 1.723 2.404-1.867-.058-3.82.354-5.324 1.225-1.503.872-2.231 2.021-2.154 3.132-1.504-.048-2.94-.393-4.041-1.054-2.471-1.474-2.27-3.955.431-5.525.076-.048.153-.086.23-.134 2.671-1.427 6.607-1.484 9.02-.115a.726.726 0 0 1 .115.067Z"/><path fill="#C3CAFA" d="M230.667 108.506c1.102.661 1.667 1.513 1.724 2.404-1.867-.058-3.821.354-5.314 1.235-1.494.881-2.232 2.02-2.165 3.122-1.503-.048-2.939-.393-4.04-1.054-1.102-.66-1.667-1.513-1.724-2.403-.067-1.101.661-2.25 2.154-3.131 1.494-.881 3.457-1.284 5.324-1.226 1.504.048 2.94.393 4.041 1.053Z"/><path fill="#F0E298" d="M236.431 111.963c2.461 1.475 2.27 3.945-.44 5.525-2.71 1.58-6.894 1.657-9.355.182-1.102-.66-1.666-1.513-1.724-2.403-.067-1.102.661-2.251 2.165-3.122 1.503-.871 3.456-1.283 5.314-1.235 1.503.048 2.939.392 4.04 1.053Z"/><path fill="#435DC9" d="M253.151 112.049c1.905 1.14 1.752 3.055-.335 4.271l-44.517 25.922c-2.087 1.216-5.333 1.283-7.239.143l-1.082-.651-59.579-35.698 75.388-.938a2.903 2.903 0 0 0-.23.134c-2.71 1.58-2.901 4.05-.431 5.525 1.102.66 2.538 1.005 4.041 1.053.058.891.623 1.743 1.724 2.404 1.101.66 2.537 1.005 4.041 1.053.057.89.622 1.743 1.723 2.403 2.461 1.475 6.655 1.398 9.356-.182 2.71-1.58 2.901-4.05.44-5.525-1.101-.66-2.537-1.005-4.041-1.053-.057-.891-.622-1.743-1.723-2.404-1.101-.66-2.565-1.005-4.069-1.053-.057-.89-.919-1.892-2.02-2.553l16.4-.118 12.163 7.258-.01.009Zm-64.424 10.974c.593.354 1.589.335 2.231-.038.641-.374.699-.967.105-1.322l-8.197-4.912c-.584-.354-1.589-.335-2.231.038-.641.374-.689.968-.105 1.322l8.197 4.912Zm17.513 10.495c.584.354 1.59.335 2.231-.038.642-.374.69-.967.106-1.322l-8.197-4.912c-.584-.354-1.589-.335-2.231.038-.642.374-.689.968-.105 1.322l8.196 4.912Zm-35.017-20.98c.584.354 1.58.325 2.221-.048.642-.374.699-.967.105-1.312l-8.196-4.912c-.584-.355-1.59-.335-2.231.038-.642.373-.69.967-.106 1.321l8.197 4.913"/></svg>