<svg xmlns="http://www.w3.org/2000/svg" width="150" height="150" fill="none"><mask id="a" width="129" height="128" x="11" y="22" maskUnits="userSpaceOnUse" style="mask-type:luminance"><path fill="#fff" d="M75.243 150c35.342 0 63.992-28.545 63.992-63.758 0-35.212-28.65-63.757-63.992-63.757S11.25 51.03 11.25 86.242C11.25 121.455 39.9 150 75.243 150Z"/></mask><g mask="url(#a)"><path fill="#7085F0" d="M75.243 150c35.342 0 63.992-28.546 63.992-63.758s-28.65-63.758-63.992-63.758S11.25 51.03 11.25 86.242 39.9 150 75.243 150Z"/><path fill="#C8D1FF" d="M139.395 152.944 97.32 14.689H53.166l-42.07 138.255h128.299Z"/><path fill="#fff" d="M69.772 152.104h11.254l-.623-22.238h-9.969l-.662 22.238ZM77.177 21.419H73.62l-.187 5.889h3.898l-.154-5.89ZM79.36 94.103h-7.923l-.579 19.145h9.076l-.573-19.145ZM77.75 37.614h-4.704l-.363 11.778h5.375l-.308-11.778ZM78.423 61.653H72.32l-.54 17.179h7.217l-.574-17.179Z"/></g><path fill="#172A8C" d="M123.901 0h-3.082s-.027.005-.039.005H30.487L26.8 0c-.32 0-.585.225-.585.5v53.062H24.35c-.325 0-.579.22-.579.5v15.804c0 .28.254.5.58.5h1.863v15.745c0 1.175.96 2.131 2.14 2.131 1.18 0 2.139-.956 2.139-2.131V70.366h2.255c.325 0 .579-.241.579-.5V54.062c0-.28-.254-.5-.58-.5h-2.254V16.31h5.023v2.483c0 .434.353.791.794.791h4.61a.793.793 0 0 0 .793-.79V16.31h2.718v2.483c0 .434.353.791.794.791h4.61a.793.793 0 0 0 .794-.79V16.31h2.718v2.483c0 .434.353.791.794.791h4.61a.793.793 0 0 0 .794-.79V16.31h60.695v69.806c0 1.176.96 2.132 2.139 2.132 1.18 0 2.14-.956 2.14-2.132V.604a.604.604 0 0 0-.607-.604h-.011ZM41.785 12.723l5.95-3.076 5.949 3.076h-11.9Zm78.45-6.4-4.957-2.56h4.957v2.56ZM50.601 8.174l-.016-.033 6.302-3.257L63.19 8.14l-.016.033.016.028-6.302 3.258-6.302-3.258.016-.028Zm18.3 0-.016-.033 6.302-3.257L81.49 8.14l-.017.033.017.028-6.303 3.258-6.302-3.258.017-.028Zm18.3 0-.016-.033 6.302-3.257L99.79 8.14l-.017.033.017.028-6.303 3.258-6.302-3.258.017-.028Zm15.439-1.483-5.662-2.928h11.33l-5.662 2.928h-.006Zm-18.3 0-5.663-2.928h11.331l-5.662 2.928h-.006Zm-18.3 0-5.663-2.928h11.331l-5.663 2.928h-.005Zm-18.3 0-5.663-2.928h11.33l-5.662 2.928h-.005Zm-2.85 1.45-.017.033.016.028-6.302 3.258-6.363-3.286 6.363-3.285 6.302 3.258V8.14Zm21.15 1.511 5.95 3.076h-11.9l5.95-3.076Zm18.3 0 5.95 3.076h-11.9l5.95-3.076Zm18.3 0 5.95 3.076h-11.9l5.95-3.076Zm2.845-1.45.017-.028-.017-.033 6.303-3.257 6.362 3.285-6.362 3.285-6.303-3.258v.006ZM35.102 3.763l-4.61 2.384V3.763h4.61Zm-4.61 6.433 4.897 2.532h-4.896v-2.532Zm84.505 2.532 5.243-2.708v2.708h-5.243Z"/></svg>