<svg xmlns="http://www.w3.org/2000/svg" width="1920" height="530" fill="none"><mask id="a" width="1920" height="530" x="0" y="0" maskUnits="userSpaceOnUse" style="mask-type:alpha"><path fill="#D9D9D9" d="M0 0h1920v530H0V0Z"/></mask><g mask="url(#a)"><mask id="b" width="1922" height="963" x="-1" y="-321" maskUnits="userSpaceOnUse" style="mask-type:luminance"><path fill="#fff" d="M1920.48-320.438H-1v962.436h1921.48v-962.436Z"/></mask><g mask="url(#b)"><path fill="#E8ECFF" d="M762.353 107.541c-1.672 0-3.22.477-4.572 1.253-1.195-6.957-7.239-12.255-14.536-12.255-8.103 0-14.678 6.53-14.761 14.615-.78-.269-1.605-.444-2.477-.444a7.683 7.683 0 0 0-7.683 7.684 7.682 7.682 0 0 0 7.683 7.683h36.35a9.262 9.262 0 0 0 9.263-9.264c0-5.115-4.148-9.264-9.263-9.264l-.004-.008ZM1294.78 76.321c-4.01 0-7.62 1.668-10.2 4.335-.02.013-.03.021-.05.03-.23.248-.45.506-.68.759-.01.012-.02.025-.03.041-.78.9-1.46 1.855-1.95 2.962-.34.784-.62.822-1.33.27-2.32-1.805-4.9-2.066-7.65-1.261-1.59.469-2.78 1.535-3.94 2.655-1.3 1.809-2.03 3.775-1.68 6.048.12.776-.24 1.058-.99 1.046-2-.025-4-.008-6-.008-2.2 0-4.45 1.593-5.19 3.65-1.32 3.697.83 7.252 4.74 7.849 11.45 0 22.89.004 34.33 0 .14 0 .27-.008.4-.012.07 0 .14.012.21.012 7.84 0 14.2-6.355 14.2-14.196 0-7.84-6.36-14.196-14.2-14.196l.01.016ZM287.151 80.247c-.979 0-1.884.278-2.676.734-.697-4.07-4.236-7.168-8.505-7.168a8.634 8.634 0 0 0-8.633 8.55 4.408 4.408 0 0 0-1.448-.262 4.494 4.494 0 0 0-4.493 4.493 4.494 4.494 0 0 0 4.493 4.493h21.266a5.421 5.421 0 0 0 5.422-5.422 5.421 5.421 0 0 0-5.422-5.422l-.004.004ZM1596.93 144.181c1.5 0 2.88.427 4.09 1.12 1.07-6.231 6.49-10.977 13.03-10.977 7.25 0 13.14 5.85 13.22 13.089.7-.241 1.44-.398 2.22-.398 3.8 0 6.88 3.082 6.88 6.882s-3.08 6.882-6.88 6.882h-32.56c-4.59 0-8.3-3.717-8.3-8.301a8.297 8.297 0 0 1 8.3-8.301v.004ZM1312.65 103.22c.66 0 1.27.191 1.81.498a5.852 5.852 0 0 1 11.62.933c.31-.108.64-.178.98-.178a3.044 3.044 0 1 1 0 6.09h-14.41a3.68 3.68 0 0 1-3.68-3.676 3.68 3.68 0 0 1 3.68-3.676v.009ZM595.109 11.287c-1.448 0-2.788.415-3.958 1.082-1.033-6.023-6.268-10.607-12.583-10.607-7.015 0-12.702 5.65-12.777 12.649-.676-.233-1.39-.386-2.145-.386a6.652 6.652 0 0 0-6.65 6.65 6.652 6.652 0 0 0 6.65 6.65h31.463a8.02 8.02 0 0 0 0-16.038ZM546.916 26.774a4.12 4.12 0 1 0 0-8.24 4.12 4.12 0 0 0 0 8.24Z"/><path fill="#CCD1E7" d="M1609.72 293.879v-204.3h-38.33v139.184h-13.49v-76.52h-37.82v35.653h-20.94v-41.261c-9.67-2.216-63.91-16.151-68.56-17.155v52.961h-23.15V170.07l-27.29.108v-20.046h-7.07l-11.69-12.964-12.28 12.968h-6.29v39.872h-32.5v14.673h-18.06v-8.521h-16.75v-33.827h-44.85s0-.407.02-.407c0 0 0-3.754-.02-3.754 0 0 0-3.556.02-3.556 0 0 0-5.907-.02-5.907 0 0 0-3.779.02-3.779 0 0 0-5.908-.02-5.908 0 0 0-3.775.02-3.775 0 0 0-5.912-.02-5.912 0 0 0-4.078.02-4.078 0 0 0-5.912-.02-5.912 0 0 0-5.189.02-5.189 0 0 0-5.912-.02-5.912v-3.916h-39.78v30.919s-3.76.025-3.73 0c0 0 0-5.912-.03-5.912 0 0 0-4.078.03-4.078 0 0 0-5.912-.03-5.912 0 0 0-4.065.03-4.065 0 0 0-5.912-.03-5.928 0 0-42.18.332-42.5.489v33.744h-25.92v44.311h-20.94v-81.942h-68.57v76.491h-23.14v-12.371l-27.296.108v-20.046l-37.32.004v39.872h-32.5v14.673h-18.059v-8.521h-16.751v-33.827h-44.85s0-.407.02-.407c0 0 0-3.754-.02-3.754 0 0 0-3.556.02-3.556 0 0 0-5.907-.02-5.907 0 0 0-3.779.02-3.779 0 0 0-5.908-.02-5.908 0 0 0-3.775.02-3.775 0 0 0-5.912-.02-5.912 0 0 0-4.078.02-4.078 0 0 0-5.911-.02-5.911 0 0 0-5.19.02-5.19 0 0 0-5.912-.02-5.912v-3.916h-39.785v93.703h-3.704s-.054.025-.021 0c0 0 0-68.692-.029-68.692 0 0 0-4.078.029-4.078 0 0 0-5.911-.029-5.911 0 0 0-4.066.029-4.066 0 0 0-5.911-.029-5.928 0 0-42.178.332-42.494.489v33.745h-43.505v44.314h-20.942v-81.95h-68.567v76.495h-23.141c-.008 0 0-11.218 0-12.379-7.936.245-16.017.282-23.933.282-.531 15.997.133 32.11.133 48.119-1.464.016-2.929.045-4.393.083-3.107.079-6.215.174-9.322.174-2.24 0-26.405-.087-26.401.469 0 2.369.004 4.737.008 7.102v14.014h-6.633V74.637h-29.92v78.133h-7.085v-49.077h-17.321v81.838h-52.748v19.681h-32.28v-83.05h-77.943v177.595"/><g fill="#fff" opacity=".45"><path d="M868.488 172.77h-28.045v6.952h28.045v-6.952ZM868.488 183.469h-28.045v6.953h28.045v-6.953ZM868.488 194.383h-28.045v6.953h28.045v-6.953ZM868.488 205.484h-28.045v6.953h28.045v-6.953ZM868.488 216.191h-28.045v6.953h28.045v-6.953ZM1451.19 144.184h-13.08v4.223h13.08v-4.223ZM1451.19 150.684h-13.08v4.223h13.08v-4.223ZM1451.19 157.32h-13.08v4.224h13.08v-4.224ZM1451.19 164.059h-13.08v4.223h13.08v-4.223ZM1451.19 170.555h-13.08v4.223h13.08v-4.223ZM1451.19 177.707h-13.08v4.223h13.08v-4.223ZM1451.19 184.203h-13.08v4.223h13.08v-4.223ZM1451.19 190.84h-13.08v4.223h13.08v-4.223ZM1451.19 197.582h-13.08v4.223h13.08v-4.223ZM1451.19 204.078h-13.08v4.223h13.08v-4.223ZM668.243 115.344h-14.022v4.223h14.022v-4.223ZM668.243 121.84h-14.022v4.223h14.022v-4.223ZM668.243 128.477h-14.022v4.223h14.022v-4.223ZM668.243 135.219h-14.022v4.223h14.022v-4.223ZM668.243 141.715h-14.022v4.223h14.022v-4.223ZM668.243 148.492h-14.022v4.223h14.022v-4.223ZM668.243 154.988h-14.022v4.223h14.022v-4.223ZM668.243 161.625h-14.022v4.223h14.022v-4.223ZM668.243 168.359h-14.022v4.224h14.022v-4.224ZM668.243 174.863h-14.022v4.223h14.022v-4.223ZM668.243 182.32h-14.022v4.223h14.022v-4.223ZM668.243 188.816h-14.022v4.224h14.022v-4.224ZM668.243 195.453h-14.022v4.223h14.022v-4.223ZM668.243 202.195h-14.022v4.223h14.022v-4.223ZM668.243 208.691h-14.022v4.224h14.022v-4.224ZM650.735 115.344h-14.022v4.223h14.022v-4.223ZM650.735 121.84h-14.022v4.223h14.022v-4.223ZM650.735 128.477h-14.022v4.223h14.022v-4.223ZM650.735 135.219h-14.022v4.223h14.022v-4.223ZM650.735 141.715h-14.022v4.223h14.022v-4.223ZM650.735 148.492h-14.022v4.223h14.022v-4.223ZM650.735 154.988h-14.022v4.223h14.022v-4.223ZM650.735 161.625h-14.022v4.223h14.022v-4.223ZM650.735 168.359h-14.022v4.224h14.022v-4.224ZM650.735 174.863h-14.022v4.223h14.022v-4.223ZM650.735 182.32h-14.022v4.223h14.022v-4.223ZM650.735 188.816h-14.022v4.224h14.022v-4.224ZM650.735 195.453h-14.022v4.223h14.022v-4.223ZM650.735 202.195h-14.022v4.223h14.022v-4.223ZM650.735 208.691h-14.022v4.224h14.022v-4.224ZM1375.27 157.535h-25.53v6.953h25.53v-6.953ZM1375.27 168.23h-25.53v6.953h25.53v-6.953ZM1375.27 179.156h-25.53v6.953h25.53v-6.953ZM1375.27 190.25h-25.53v6.953h25.53v-6.953ZM1375.27 200.957h-25.53v6.953h25.53v-6.953ZM1060.86 115.078h-14.02v4.223h14.02v-4.223ZM1060.86 121.574h-14.02v4.223h14.02v-4.223ZM1060.86 128.211h-14.02v4.223h14.02v-4.223ZM1060.86 134.945h-14.02v4.224h14.02v-4.224ZM1060.86 141.445h-14.02v4.224h14.02v-4.224ZM1060.86 148.605h-14.02v4.224h14.02v-4.224ZM1060.86 155.105h-14.02v4.224h14.02v-4.224ZM1060.86 161.738h-14.02v4.223h14.02v-4.223ZM1060.86 168.48h-14.02v4.224h14.02v-4.224ZM1060.86 174.977h-14.02v4.223h14.02v-4.223ZM1086.52 117.844h-15.94v4.223h15.94v-4.223ZM1086.52 124.34h-15.94v4.223h15.94v-4.223ZM1086.52 130.977h-15.94v4.223h15.94v-4.223ZM1086.52 137.711h-15.94v4.223h15.94v-4.223ZM1086.52 144.215h-15.94v4.223h15.94v-4.223ZM1086.52 150.992h-15.94v4.223h15.94v-4.223ZM1086.52 157.488h-15.94v4.223h15.94v-4.223ZM1086.52 164.125h-15.94v4.223h15.94v-4.223ZM1086.52 170.859h-15.94v4.224h15.94v-4.224ZM1086.52 177.359h-15.94v4.224h15.94v-4.224ZM1086.52 184.824h-15.94v4.223h15.94v-4.223ZM1086.52 191.32h-15.94v4.224h15.94v-4.224ZM1086.52 197.957h-15.94v4.223h15.94v-4.223ZM1086.52 204.691h-15.94v4.224h15.94v-4.224ZM1086.52 211.195h-15.94v4.224h15.94v-4.224Z"/></g><path fill="#BDC6FF" d="M-255.76 262.549c170.401-19.784 353.331-19.241 531.287-13.246 177.96 5.994 354.911 17.249 533.593 18.257 221.05 1.249 440.3-13.2 660.77-19.232 220.46-6.032 449.74-3.049 650.64 30.857v101.834H-255.76"/><path fill="#87BBA4" d="M1967.09 274H-57.541v471.212H1967.09V274Z"/><path fill="#80B59A" d="M1967.09 274H-57.541v161.714c174.761-87.505 378.712-111.936 575.859-110.5 228.862 1.663 457.11 34.756 685.842 26.791 134.49-4.684 268.26-23.547 402.82-26.215 122.23-2.422 247.27 9.301 360.11 55.109V274Z"/><path fill="#D7D6D6" d="M953.304 274.523 431.323 402.447C427.274 403.439-.992 508.899-.992 513.068l-4.514 126.597c0 4.991 4.04 9.039 9.027 9.048l1907.899 2.327c5.01.013 9.07-4.045 9.07-9.048V498.021c0 22.178-428.27-92.213-432.31-93.209L957.619 274.523a9.031 9.031 0 0 0-4.311 0h-.004Z"/><path fill="#87898D" d="M-.996 510.002v-71.413l956.453-164.593L-.996 510.002Zm1921.486-7.998v-63.415L955.457 273.996 1920.49 502v.004Z"/><path fill="#9D9593" d="M-.996 508.056v-11.885L955.457 274-.996 508.056Zm1921.486 1.83V498L955.457 274l965.033 235.886Z"/><path fill="#F9E476" d="M-.998 473.599v-6.796L955.459 274-.998 473.599ZM1920.49 469.45v-6.795L955.461 274l965.029 195.45Z"/><path fill="#fff" d="M-.998 513.068v-5.895l956.457-233.31L-.998 513.068ZM1920.49 515.781v-5.895L955.461 273.863l965.029 241.918Z"/><path fill="#4C6ECB" d="M1238.41 194.848h-2.79v123.597h2.79V194.848Z"/><path fill="#4C6ECB" d="M1241.36 324.503c0 .046-.02.087-.05.116-.28.204-1.54.992-4.38.992-2.69 0-4.07-.797-4.37-.992-.05-.025-.07-.07-.07-.12v-33.242a4.332 4.332 0 0 1 4.34-4.331c2.5 0 4.53 2.033 4.53 4.538v33.039ZM1220.02 190.531h15.99a2.38 2.38 0 0 1 2.38 2.373v3.663h-20.75v-3.663a2.373 2.373 0 0 1 2.38-2.373ZM696.734 315.262h2.787V191.664h-2.787v123.598Z"/><path fill="#4C6ECB" d="M693.775 321.32c0 .045.021.087.058.116.274.203 1.531.991 4.377.991 2.688 0 4.07-.796 4.373-.991a.138.138 0 0 0 .062-.121v-33.242a4.329 4.329 0 0 0-4.331-4.331 4.54 4.54 0 0 0-4.539 4.539v33.039ZM717.492 193.387H696.75v-3.663a2.372 2.372 0 0 1 2.372-2.373h15.997a2.372 2.372 0 0 1 2.373 2.373v3.663Z"/><path fill="#fff" d="M640.918 531.734h-34.777l138.154-101.922h21.025L640.918 531.734ZM801.96 399.798h-16.972l54.408-40.142h11.554l-48.99 40.142ZM870.225 343.869h-9.43l25.891-19.099h6.849l-23.31 19.099ZM907.317 313.484h-5.323l12.948-9.554h4.036l-11.661 9.554ZM926.936 297.407h-3.153l7.098-5.235h2.444l-6.389 5.235ZM938.366 288.04h-1.887l4.094-3.024h1.481l-3.688 3.024ZM945.523 282.174h-1.091l2.032-1.502h.897l-1.838 1.502ZM949.088 279.256h-.701l1.311-.967h.572l-1.182.967ZM951.283 277.457h-.457l.992-.73h.365l-.9.73ZM952.864 276.159h-.282l.705-.526c.219 0-.423.526-.423.526ZM1269.99 531.734h34.78l-138.16-101.922h-21.02l124.4 101.922ZM1108.95 399.798h16.98l-54.41-40.142h-11.56l48.99 40.142ZM1040.69 343.869h9.43l-25.9-19.099h-6.84l23.31 19.099ZM1003.6 313.484h5.32l-12.95-9.554h-4.032l11.662 9.554ZM983.977 297.407h3.153l-7.099-5.235h-2.443l6.389 5.235ZM972.552 288.04h1.883l-4.099-3.024h-1.477l3.693 3.024ZM965.384 282.174h1.095l-2.028-1.502h-.896l1.829 1.502ZM961.823 279.256h.701l-1.311-.967h-.568l1.178.967ZM959.622 277.457h.461l-.988-.73h-.365l.892.73ZM958.047 276.159h.282l-.704-.526c-.216 0 .422.526.422.526Z"/><path fill="#4462CF" d="m885.817 420.82 206.903 1.892c10.02 0 23.21 4.397 33.46 11.637v4.559c0 2.481-2.69 4.489-6.02 4.489H885.812V420.82h.005ZM564.389 445.027l243.83-2.265c5.688-.058 7.173-7.895 1.9-10.031l-24.198-15.014a80.454 80.454 0 0 0-44.846-12.051l-204.577 6.177 27.891 33.184ZM1105.25 375.184l138.26-.477c3.76-.033 4.75-4.455 1.26-5.658l-35.49-12.272-126.74 1.975 22.71 16.432Z" opacity=".1" style="mix-blend-mode:multiply"/><path fill="#4462CF" d="M1481.89 123.414h-5.29V358.13h5.29V123.414Z"/><path fill="#4462CF" d="M1487.51 369.625a.27.27 0 0 1-.11.22c-.52.382-2.9 1.879-8.31 1.879-5.1 0-7.73-1.51-8.3-1.883a.263.263 0 0 1-.12-.228v-63.129c0-4.542 3.68-8.226 8.22-8.226 4.77 0 8.63 3.858 8.63 8.62v62.747h-.01ZM1444.84 115.219h34.65a2.37 2.37 0 0 1 2.37 2.373v9.085h-39.39v-9.085a2.37 2.37 0 0 1 2.37-2.373ZM453.25 357.723h5.289V123.007h-5.289v234.716Z"/><path fill="#4462CF" d="M447.629 369.215c0 .087.042.17.112.22.523.381 2.904 1.879 8.31 1.879 5.102 0 7.728-1.51 8.301-1.883a.275.275 0 0 0 .12-.229v-63.128a8.227 8.227 0 0 0-8.226-8.226 8.619 8.619 0 0 0-8.621 8.62v62.747h.004ZM492.668 126.27h-39.39v-9.086a2.372 2.372 0 0 1 2.373-2.373h34.644a2.372 2.372 0 0 1 2.373 2.373v9.086Z"/><path fill="#5F77E1" d="M857.704 201.516h-3.722v92.985h3.722v-92.985Z"/><path fill="#5F77E1" d="M1059.23 219.873V216.5H849.254v3.373h209.976ZM1058.98 210.002v-3.373H849.006v3.373h209.974Z"/><path fill="#5F77E1" d="M1050.77 201.516v92.889h3.72V201.516h-3.72ZM865.226 217.583l-.66-1.033 14.67-7.675.655 1.033-14.665 7.675Z"/><path fill="#5F77E1" d="m865.494 208.875-.66 1.033 14.404 7.534.655-1.029-14.399-7.538Z"/><path fill="#5F77E1" d="M855.151 214.999c-.182-.287-.074-.648.241-.813l9.434-5.012c.315-.166.717-.066.896.22.182.286.074.647-.241.813l-9.434 5.012c-.315.165-.717.066-.896-.22Z"/><path fill="#5F77E1" d="m855.476 210.285-.656 1.033 10.007 5.829c.315.166.717.066.896-.22.182-.286.074-.647-.241-.813l-10.006-5.829ZM878.605 217.442l-.656-1.029 14.4-7.538.655 1.033-14.399 7.534Z"/><path fill="#5F77E1" d="m878.605 208.875-.656 1.033 14.4 7.534.655-1.029-14.399-7.538Z"/><path fill="#5F77E1" d="m891.726 217.442-.656-1.029 14.4-7.538.66 1.033-14.404 7.534Z"/><path fill="#5F77E1" d="m891.726 208.875-.656 1.033 14.4 7.534.66-1.029-14.404-7.538Z"/><path fill="#5F77E1" d="m904.847 217.442-.656-1.029 14.404-7.538.656 1.033-14.404 7.534Z"/><path fill="#5F77E1" d="m904.847 208.875-.656 1.033 14.404 7.534.656-1.029-14.404-7.538Z"/><path fill="#5F77E1" d="m917.964 217.442-.659-1.029 14.403-7.538.656 1.033-14.4 7.534Z"/><path fill="#5F77E1" d="m917.964 208.875-.659 1.033 14.403 7.534.656-1.029-14.4-7.538Z"/><path fill="#5F77E1" d="m931.08 217.442-.66-1.029 14.404-7.538.655 1.033-14.399 7.534Z"/><path fill="#5F77E1" d="m931.08 208.875-.66 1.033 14.404 7.534.655-1.029-14.399-7.538Z"/><path fill="#5F77E1" d="m944.2 217.442-.655-1.029 14.4-7.538.659 1.033-14.404 7.534Z"/><path fill="#5F77E1" d="m944.2 208.875-.655 1.033 14.4 7.534.659-1.029-14.404-7.538Z"/><path fill="#5F77E1" d="m957.316 217.442-.656-1.029 14.4-7.538.659 1.033-14.403 7.534Z"/><path fill="#5F77E1" d="m957.316 208.875-.656 1.033 14.4 7.534.659-1.029-14.403-7.538Z"/><path fill="#5F77E1" d="m970.433 217.442-.656-1.029 14.404-7.538.656 1.033-14.404 7.534Z"/><path fill="#5F77E1" d="m970.433 208.875-.656 1.033 14.404 7.534.656-1.029-14.404-7.538Z"/><path fill="#5F77E1" d="m983.556 217.442-.66-1.029 14.404-7.538.656 1.033-14.4 7.534Z"/><path fill="#5F77E1" d="m983.556 208.875-.66 1.033 14.62 7.65.66-1.033-14.62-7.65Z"/><path fill="#5F77E1" d="m996.872 217.444-.659-1.029 12.387-6.778.65 1.033-12.378 6.774Z"/><path fill="#5F77E1" d="m996.872 208.875-.659 1.033 13.327 7.944.66-1.028-13.328-7.949Z"/><path fill="#5F77E1" d="m1008.63 217.444-.66-1.029 12.38-6.778.66 1.033-12.38 6.774Z"/><path fill="#5F77E1" d="m1008.63 208.875-.66 1.033 13.33 7.944.65-1.028-13.32-7.949Z"/><path fill="#5F77E1" d="m1019.62 217.444-.66-1.029 12.39-6.778.65 1.033-12.38 6.774Z"/><path fill="#5F77E1" d="m1019.62 208.875-.66 1.033 13.33 7.944.66-1.028-13.33-7.949Z"/><path fill="#5F77E1" d="m1031.46 217.444-.65-1.029 12.38-6.778.66 1.033-12.39 6.774Z"/><path fill="#5F77E1" d="m1031.46 208.875-.65 1.033 13.32 7.944.66-1.028-13.33-7.949Z"/><path fill="#5F77E1" d="m1054.22 210.078-11.57 6.335.66 1.029 10.91-5.974v-1.39Z"/><path fill="#5F77E1" d="m1054.22 215.384-10.91-6.509-.66 1.033 11.57 6.899v-1.423ZM859.725 258.949h-7.762v14.321h7.762v-14.321ZM877.506 222.801h-6.92v4.704h6.92v-4.704Z"/><path fill="#5F77E1" d="M874.733 219.656h-1.544v3.987h1.544v-3.987ZM900.203 222.93h-6.92v4.704h6.92v-4.704Z"/><path fill="#5F77E1" d="M897.43 219.785h-1.543v3.987h1.543v-3.987ZM922.896 223.059h-6.919v4.704h6.919v-4.704Z"/><path fill="#5F77E1" d="M920.123 219.914h-1.543v3.987h1.543v-3.987ZM945.594 223.18h-6.92v4.704h6.92v-4.704Z"/><path fill="#5F77E1" d="M942.821 220.035h-1.544v3.987h1.544v-3.987Z"/><path fill="#fff" d="M944.59 223.902h-4.916v3.265h4.916v-3.265Z"/><path fill="#161615" d="m1085.03 359.781 7.84-.029s2.79-1.12 3.11-7.401c.31-6.281-9.27-12.831-9.27-12.831"/><path fill="#CA5656" d="M1091.35 346.671c-.84-5.87-3.76-9.89-7.12-9.77-1.4.05-2.65.743-3.61 2.008-.77 1.025-.95.514-1.16 1.95l.89 2.999c.3-2.012 2.04-4.65 3.96-4.717 2.33-.079 6.37 2.763 7.04 7.53Z"/><path fill="#2E302C" d="M1085.02 359.79c3-.104 5.27-4.87 5.07-10.645-.2-5.775-2.79-10.372-5.8-10.268-3 .105-5.28 4.871-5.08 10.646.21 5.775 2.8 10.371 5.81 10.267Z"/><path fill="#777" d="M1084.85 354.82c1.57-.054 2.76-2.554 2.66-5.584-.11-3.029-1.47-5.441-3.05-5.386-1.57.055-2.76 2.555-2.66 5.584.11 3.03 1.47 5.441 3.05 5.386Z"/><path fill="#666" d="M1084.79 353.306c1.14-.04 2.01-1.851 1.93-4.044-.07-2.194-1.06-3.94-2.2-3.9-1.15.039-2.01 1.85-1.93 4.043.07 2.194 1.06 3.94 2.2 3.901Z"/><path fill="#161615" d="m1107.44 375.184 9.27-.033s3.3-1.324 3.66-8.741c.38-7.418-9.85-13.902-9.85-13.902"/><path fill="#CA5656" d="m1114.62 360.78.11-1.054c-.97-6.836-4.35-11.52-8.22-11.383-3.94.137-6.4 3.157-6.87 9.794l1.69.992c.41-5.63 2.34-8.09 5.27-8.193 2.84-.1 7.21 4.123 8.03 9.844h-.01Z"/><path fill="#2E302C" d="M1107.43 375.198c3.55-.124 6.24-5.753 6-12.575-.24-6.821-3.31-12.251-6.86-12.128-3.54.124-6.23 5.754-5.99 12.575.23 6.821 3.3 12.251 6.85 12.128Z"/><path fill="#777" d="M1107.23 369.319c1.86-.064 3.27-3.016 3.15-6.593-.13-3.576-1.74-6.423-3.6-6.359-1.86.065-3.27 3.017-3.14 6.593.12 3.577 1.73 6.424 3.59 6.359Z"/><path fill="#666" d="M1107.17 367.536c1.35-.047 2.37-2.186 2.28-4.778-.09-2.592-1.26-4.655-2.61-4.608-1.35.046-2.37 2.186-2.28 4.778.09 2.592 1.26 4.655 2.61 4.608Z"/><path fill="#CA5656" d="M1114.53 361.664c-.62-7.313-4.4-12.964-8.43-12.623-3.14.265-5.52 4.082-6.12 9.205l-9.51-4.281c.39-1.697.53-3.638.36-5.684-.53-6.181-3.72-10.956-7.13-10.666-1.72.146-3.16 1.544-4.11 3.684-2.08-6.936 2.11-10.305 2.11-19.265 0-9.567 14.35-7.974 14.35-7.974l9.88-14.814c1.81-2.714 4.82-4.232 8.07-4.526 47.31-4.298 65.09 3.173 65.09 3.173-.49-.074 2.52 1.921 4.33 4.862l9.9 16.088 8.86 3.319a6.15 6.15 0 0 1 3.98 5.634l.35 17.503c.08 4.007-.32 8.014-1.19 11.927l-1.72 7.749a6.58 6.58 0 0 1-6.42 5.148h-7.81l-2.42-3.443h-44.65l-3.19 3.19c-23.92 1.593-23.92-4.783-23.92-4.783l-.61-.27c.05-1.02.04-2.074-.05-3.157v.004Z"/><path fill="#CC7D7D" d="M1146.6 335.883s-10.88 1.461-7.47-16.677c3.13-16.61-1.52-21.46-27.16-24.132-2.44.639-4.62 2.033-6.04 4.174l-9.88 14.814s-14.35-1.593-14.35 7.974c0 .215-.01.427-.01.638l33.9 14.259s10.56-1.44 11.85 7.978c1.3 9.417 19.16 11.213 19.16 11.213v-20.241Z" opacity=".49"/><path fill="#161615" d="m1191.93 375.803-9.26-.208s-3.27-1.385-3.5-8.807c-.23-7.422 9.31-12.218 9.31-12.218"/><path fill="#4462CF" d="M1185.81 360.348c.99-6.16 4.1-10.666 7.51-10.483 3.42.182 5.58 3.721 5.91 9.952" opacity=".2" style="mix-blend-mode:multiply"/><path fill="#161615" d="M1199 363.801c.37-6.815-2.21-12.495-5.76-12.685-3.54-.19-6.71 5.181-7.08 11.996-.37 6.816 2.21 12.495 5.76 12.686 3.55.19 6.72-5.181 7.08-11.997Z"/><path fill="#161615" d="M1195.95 363.637c.19-3.574-1.16-6.552-3.02-6.652-1.86-.099-3.53 2.717-3.72 6.29-.19 3.574 1.16 6.552 3.02 6.652 1.86.099 3.53-2.717 3.72-6.29Z"/><path fill="#161615" d="M1195.02 363.588c.14-2.59-.84-4.748-2.19-4.82-1.35-.073-2.55 1.968-2.69 4.558-.14 2.59.84 4.748 2.19 4.82 1.34.073 2.55-1.968 2.69-4.558Z"/><path fill="#B74C4C" d="m1099.51 320.728 11.54 3.282a9.03 9.03 0 0 1 6.57 8.687v29.915l-3.13-1.303c-.71-7.139-4.42-12.599-8.4-12.263-2.54.216-4.57 2.755-5.58 6.426l-9.67-4.036c.07-1.008.07-2.062-.02-3.149-.29-3.348-1.35-6.285-2.81-8.227v-10.645c0-5.994 5.73-10.325 11.5-8.687Z"/><path fill="#fff" d="m1187.56 313.295-7.8-12.533c-.78-1.257-2.09-2.012-3.5-2.012h-45.08c-2.13 0-3.93 1.705-4.19 3.974l-1.49 13.105c-.29 2.581 1.49 4.896 3.91 5.062 10.23.717 36.05 2.086 55.18-.598 3.1-.435 4.7-4.206 2.96-6.998h.01Z"/><path fill="#B7C0FF" d="M1136.31 307.773h40.6v-.713h-40.6v.713ZM1135.76 310.562h42.34v-.713h-42.34v.713ZM1135.42 313.352h43.92v-.714h-43.92v.714ZM1135.05 316.141h45.49v-.714h-45.49v.714Z"/><path fill="#B7C0FF" d="M1176.26 298.746c1.41 0 2.73.755 3.51 2.012l7.79 12.533c1.74 2.792.14 6.563-2.96 6.998l-1.19.162c-.33.033-.68.062-1.03.096l1.01-1.013c1.45-1.46 1.81-3.775.89-5.667l-4.98-10.267a10.832 10.832 0 0 0-3.76-4.319c-.2-.137-.67-.311-1.06-.531h1.78v-.004Z"/><path fill="#E7A13C" d="M1123.66 330.408v-.045a3.274 3.274 0 0 1 3.27-3.269h3.48c1.81 0 3.27 1.464 3.27 3.269v.045h-10.02ZM1133.68 331.805v1.352a3.265 3.265 0 0 1-3.26 3.269h-3.48a3.267 3.267 0 0 1-3.27-3.269v-1.352h10.01Z"/><path fill="#FFD45C" d="M1195.05 329.862v-.046a3.267 3.267 0 0 1 3.27-3.269h3.48c1.8 0 3.27 1.464 3.27 3.269v.046h-10.02ZM1205.07 331.266v1.352a3.274 3.274 0 0 1-3.27 3.269h-3.48a3.267 3.267 0 0 1-3.27-3.269v-1.352h10.02Z"/><path fill="#E7A13C" d="M1201.11 329.834h-6.09v-.045a3.267 3.267 0 0 1 3.27-3.269h2.2c.09.344.18.676.25.958.17.776.29 1.564.38 2.356h-.01ZM1201.14 335.86h-2.86c-1.8 0-3.26-1.465-3.26-3.269v-1.353h6.2c.04.589.06 1.178.06 1.768 0 .954-.05 1.908-.14 2.858v-.004Z"/><path fill="#B74C4C" d="M1184.92 341.094h-40.98a3.6 3.6 0 0 1-3.6-3.601v-3.8c0-2.22 1.8-4.02 4.02-4.02h40.14c2.22 0 4.02 1.8 4.02 4.02v3.8a3.6 3.6 0 0 1-3.6 3.601Z"/><path fill="#CC7D7D" d="M1166.05 337.307c1.06 0 1.93-.862 1.93-1.925 0-1.063-.87-1.925-1.93-1.925s-1.92.862-1.92 1.925c0 1.063.86 1.925 1.92 1.925Z"/><path fill="#B7C0FF" d="M1098.16 313.188c2.14-3.29 6.79-10.405 9.49-13.96a4.362 4.362 0 0 1 4.31-1.643l2.48.481c-1.17 2.884-4.07 10.625-5.34 19.391l-10.03-2.104a1.428 1.428 0 0 1-.91-2.169v.004ZM1119.3 301.686l-.41 16.27c-.03.805-.77 1.39-1.56 1.228l-7.02-1.469c1.28-8.927 4.29-16.78 5.36-19.406l1.09.211a3.137 3.137 0 0 1 2.54 3.17v-.004Z"/><path fill="#CC7D7D" d="m1108.04 329.551 3.72 1.001a.825.825 0 0 0 1.01-.58l.21-.797a.817.817 0 0 0-.58-1.006l-3.72-1.002a.825.825 0 0 0-1.01.58l-.21.797c-.12.438.14.889.58 1.007ZM1097.88 326.508l3.73 1.001a.81.81 0 0 0 1-.58l.22-.797a.817.817 0 0 0-.58-1.006l-3.73-1.002a.81.81 0 0 0-1 .58l-.22.797c-.12.438.14.889.58 1.007Z"/><path fill="#B74C4C" d="M1129.35 340.088c1.12.149 2 .398 2.63 1.34l2.84 6.546c1.95 1.946 6.35 1.693 9.1 1.693h39.85c2.75 0 7.7-.183 9.65-2.129.6-1.294 1.21-2.588 1.83-3.883.95-2.016 1.9-2.833 4.32-2.837.98 0 2.03.415 2.5 1.273v22.921c0 .452 0 .896-.03 1.319h.03c0 .162-.03.32-.07.469-.17 1.228-.71 2.261-2.5 2.896-.55.195-1.13.311-1.72.369a49.51 49.51 0 0 1-8.48.066c-.39-.593-.84-1.107-1.24-1.701l.09-.012-1.21-1.717h-44.65l-3.19 3.19c-5.46.365-9.67.311-12.92.016v-28.861a4.066 4.066 0 0 1 3.16-.946l.01-.012Z"/><path fill="#B7C0FF" d="M1149.91 353.656h32.29c.29 0 .52-.232.52-.518v-5.841a.517.517 0 0 0-.52-.519h-32.29c-.29 0-.52.232-.52.519v5.841c0 .286.23.518.52.518Z"/><path fill="#B74C4C" d="m1095.86 316.046-1.57-4.12a2.239 2.239 0 0 0-2.43-1.219l-6.01 1.132c-.7.133-1.21.734-1.22 1.444l-.01 1.294a1.43 1.43 0 0 0 .97 1.378l7.24 2.505c.86.299 1.8-.079 2.23-.883l.8-1.535v.004Z"/><path fill="#B7C0FF" d="M1093.27 312.405a1.217 1.217 0 0 0-1.33-.668l-5.6.966a.683.683 0 0 0-.55.647l-.01 1.183c0 .274.17.518.43.605l5.55 1.942c.85.299 1.79-.075 2.21-.88l.63-1.219-1.33-2.581v.005Z"/><path fill="#7080E1" d="m1028.3 351.877 6.51-13.035a5.236 5.236 0 0 1 5.7-2.788l14.05 2.809a3.475 3.475 0 0 1 2.79 3.406v3.024c0 1.452-.93 2.738-2.3 3.199l-22.6 7.533-4.16-4.152.01.004Z"/><path fill="#7080DB" d="m888.922 351.877-6.518-13.035a5.226 5.226 0 0 0-5.696-2.788l-14.051 2.809a3.475 3.475 0 0 0-2.792 3.406v3.024c0 1.452.93 2.738 2.307 3.199l22.601 7.533 4.153-4.152-.004.004Z"/><path fill="#4462CF" d="m888.922 351.877-6.518-13.035a5.226 5.226 0 0 0-5.696-2.788l-14.051 2.809a3.475 3.475 0 0 0-2.792 3.406v3.024c0 1.452.93 2.738 2.307 3.199l22.601 7.533 4.153-4.152-.004.004Z"/><path fill="#B7C0FF" d="M880 339.981a2.864 2.864 0 0 0-3.124-1.527l-13.084 2.406a1.561 1.561 0 0 0-1.253 1.531v2.763c0 .639.411 1.207 1.016 1.411l16.52 5.575 3.095-6.156-3.17-5.999v-.004Z"/><path fill="#161615" d="M866.84 415.66h23.501v23.697a4.047 4.047 0 0 1-4.049 4.049h-15.395a4.071 4.071 0 0 1-2.862-1.179 4.039 4.039 0 0 1-1.195-2.85V415.66ZM1026.37 415.645h23.5v23.696c0 .531-.1 1.058-.3 1.552-.2.493-.5.941-.88 1.319-.37.377-.82.676-1.31.879-.49.208-1.02.311-1.55.311h-15.4c-1.07 0-2.1-.427-2.86-1.186a4.047 4.047 0 0 1-1.19-2.863v-23.708h-.01Z"/><path fill="#4462CF" d="M1040.45 390.07H876.257c-6.862 0-11.55-7.289-8.351-13.346l31.993-64.672a25.741 25.741 0 0 1 9.484-10.035 25.769 25.769 0 0 1 13.312-3.701h71.31a25.79 25.79 0 0 1 13.315 3.701 25.813 25.813 0 0 1 9.48 10.039l31.99 64.668c3.2 6.065-1.48 13.35-8.34 13.35v-.004Z"/><path fill="#4462CF" d="M866.85 415.585v-39.158c0-2.506.493-4.987 1.452-7.302a18.997 18.997 0 0 1 4.14-6.189 19.07 19.07 0 0 1 6.194-4.136 19.113 19.113 0 0 1 7.309-1.452h144.815c5.06 0 9.92 2.008 13.5 5.588a19.065 19.065 0 0 1 5.59 13.487v39.162c0 1.381-8.67 10.043-10.05 10.043H876.893"/><path fill="#fff" d="M1026.7 343.974H890.006l12.4-26.468c3.339-8.173 10.662-14.35 19.635-14.35h72.62c8.969 0 16.159 5.389 19.639 14.35l12.4 26.468Z"/><path fill="#B7C0FF" d="M889.807 416.917a6.988 6.988 0 0 1-6.99-6.99V375.83c0-3.236.755-6.426 2.199-9.322l25.467-50.94a22.532 22.532 0 0 1 20.158-12.458h78.209c-.51-.356-.99-.742-1.52-1.066a25.792 25.792 0 0 0-13.316-3.7h-71.309a25.769 25.769 0 0 0-22.796 13.736l-23.763 48.035a18.937 18.937 0 0 0-3.696 2.855 19.143 19.143 0 0 0-4.141 6.189 19.097 19.097 0 0 0-1.452 7.302v39.158l.046.045a10.479 10.479 0 0 0 9.952 9.953l.05.049H1039.82c.06 0 .15-.037.23-.066 4.88-.323 8.78-3.958 9.59-8.683H889.807Z" opacity=".49"/><path fill="#B7C0FF" d="M970.575 307.09h-24.439c-1.232 0-2.232 1-2.232 2.228v5.687c0 1.232 1 2.228 2.232 2.228h24.439c1.232 0 2.232-1 2.232-2.228v-5.687c0-1.233-1-2.228-2.232-2.228Z"/><path fill="#fff" d="M969.615 308.898h-22.514c-.585 0-1.062.473-1.062 1.062v4.41c0 .585.473 1.058 1.058 1.058h22.518c.585 0 1.058-.473 1.058-1.058v-4.414c0-.585-.473-1.058-1.058-1.058Z"/><path fill="#B7C0FF" d="M959.422 303.156h-2.137v4.829h2.137v-4.829ZM924.744 303.898ZM914.436 309.996c-.17.178-.344.352-.51.539.166-.183.34-.361.51-.539ZM916.708 307.945ZM911.506 313.758c-.095.149-.194.298-.285.451.091-.153.19-.298.285-.451ZM920.527 305.516ZM914.967 309.456c.186-.178.377-.352.568-.526-.191.174-.382.344-.568.526ZM910.484 315.568l.012-.025-.012.025ZM926.224 303.555c-.356.07-.713.157-1.066.244.353-.087.705-.174 1.066-.244ZM927.724 303.305Z"/><path fill="#4462CF" d="M923.753 304.199c-.148.05-.301.095-.45.145.149-.05.302-.099.45-.145ZM925.156 303.801c-.137.033-.273.066-.41.103.137-.037.273-.066.41-.103ZM912.047 312.914c-.187.274-.361.56-.539.842.174-.282.352-.568.539-.842ZM911.226 314.203ZM912.952 311.684c-.178.228-.348.464-.522.7.17-.236.34-.472.522-.7ZM918.458 306.695c-.178.116-.356.237-.534.357.178-.12.352-.241.534-.357ZM917.24 307.535c-.183.133-.361.274-.535.415.178-.141.357-.278.535-.415ZM916.074 308.457Z"/><path fill="#B7C0FF" d="M910.496 315.54c.228-.456.473-.9.726-1.336.091-.153.19-.299.286-.452.174-.282.353-.568.539-.842.121-.179.253-.349.382-.523.17-.236.34-.473.523-.701.145-.183.298-.361.448-.539.174-.208.344-.415.527-.614.165-.183.34-.361.51-.54.174-.182.348-.365.531-.539a35.402 35.402 0 0 1 1.103-1.004c.208-.174.415-.34.627-.506.178-.141.357-.278.535-.415.224-.166.452-.328.684-.485.179-.121.353-.241.536-.357.244-.158.493-.307.742-.456.174-.104.349-.204.523-.299.265-.145.531-.286.801-.423.165-.083.336-.166.506-.245.286-.133.572-.266.863-.386.161-.066.323-.133.485-.195.307-.12.614-.236.925-.344.149-.05.303-.1.452-.145.328-.104.656-.208.992-.299.137-.037.274-.066.411-.104a22.65 22.65 0 0 1 1.066-.245l.344-.062c.382-.07.767-.137 1.157-.186l.237-.025c.427-.05.854-.096 1.286-.121h-7.206c-8.973 0-16.296 6.173-19.635 14.35l-12.4 26.468h6.272"/><path fill="#304280" d="m866.867 406.766-.025 8.355c0 5.812 4.713 10.52 10.521 10.52h161.977c5.81 0 10.52-4.712 10.52-10.52v-8.355H866.863h.004Z"/><path fill="#fff" d="M1037.17 339.981a2.875 2.875 0 0 1 3.13-1.527l13.08 2.406c.73.146 1.25.789 1.25 1.531v2.763c0 .639-.41 1.207-1.01 1.411l-16.52 5.575-3.1-6.156 3.17-5.999v-.004Z"/><path fill="#172A81" d="M1049.62 416.909H889.799a6.988 6.988 0 0 1-6.99-6.99v-3.161h-15.947l-.012 2.626V415.354c0 .091.008.186.012.278l.033.033a10.472 10.472 0 0 0 8.944 9.852h.017c.307.046.622.075.942.092.186.008.373.029.56.029h161.972c.24 0 .46-.021.68-.033.01 0 .02-.005.02-.009 4.88-.323 8.78-3.957 9.59-8.683v-.004Z"/><path fill="#7080E1" d="M905.105 390.063h104.975c3.03 0 5.83-1.622 7.34-4.252l12.37-21.552-10.14-20.294H896.272l-10.45 20.294 11.877 21.436a8.47 8.47 0 0 0 7.406 4.364v.004Z"/><path fill="#CA5656" d="M882.807 375.821v4.974l17.909.851c3.285.157 5.306-3.522 3.431-6.227-3.734-5.385-9.438-12.077-14.582-11.803l-3.062-.116-1.498 2.999a20.85 20.85 0 0 0-2.198 9.322Z"/><path fill="#E97E7E" d="M875.826 369.775c.299 2.979.664 5.298.664 5.298a5.69 5.69 0 0 0 5.223 5.671l1.099.054v-4.974c0-3.236.756-6.426 2.199-9.322l1.498-2.999-4.618-.175c-3.551-.132-6.417 2.904-6.065 6.443v.004Z"/><path fill="#CA5656" d="m1015.42 381.648 19.01-.904a5.692 5.692 0 0 0 5.22-5.671s.37-2.319.67-5.298c.35-3.539-2.51-6.575-6.07-6.443l-7.68.287c-5.14-.274-10.84 6.417-14.58 11.802-1.87 2.705.15 6.381 3.43 6.227Z"/><path fill="#4462CF" d="m895.311 381.388-8.803-17.888.983.037 8.782 18.113-.962-.262ZM1028.31 363.238l-9.5 18.416.98-.038 9.47-18.241-.95-.137Z"/><path fill="#B7C0FF" d="M1004.31 323.02h-92.158v1.082h92.158v-1.082ZM1006.29 327.258h-96.116v1.083h96.116v-1.083ZM1008.08 331.496h-99.697v1.083h99.697v-1.083ZM1009.87 335.738H906.594v1.083h103.276v-1.083Z"/><path fill="#4462CF" d="M912.349 352.133h91.771c2.18 0 3.96 1.775 3.96 3.966v15.955a2.71 2.71 0 0 1-2.71 2.713h-94.274a2.713 2.713 0 0 1-2.713-2.713v-15.955a3.968 3.968 0 0 1 3.966-3.966Z"/><path fill="#B7C0FF" d="M958.851 371.256a4.236 4.236 0 1 0 0-8.472 4.236 4.236 0 0 0 0 8.472Z"/><path fill="#EAEEFF" d="M987.343 375.051h-59.486a.867.867 0 0 0-.867.867v10.902c0 .479.388.867.867.867h59.486a.867.867 0 0 0 .867-.867v-10.902a.867.867 0 0 0-.867-.867Z"/><path fill="#8091EA" d="M1006.09 242.883h-.93v38.253h.93v-38.253Z"/><path fill="#8091EA" d="M1007.08 283.007s-.01.029-.02.038c-.09.062-.51.307-1.46.307-.89 0-1.35-.245-1.45-.307-.02-.009-.03-.021-.03-.038v-10.288c0-.739.65-1.34 1.45-1.34.83 0 1.51.63 1.51 1.406v10.226-.004ZM1000.42 241.547h4.42c.69 0 1.24.56 1.24 1.244v.623h-6.908v-.623c0-.688.56-1.244 1.248-1.244ZM904.756 281.184h.93v-37.416h-.93v37.416Z"/><path fill="#8091EA" d="M903.768 283.016s.008.025.021.033c.091.063.51.299 1.456.299.896 0 1.356-.241 1.456-.299a.043.043 0 0 0 .021-.037v-10.064c0-.726-.648-1.311-1.444-1.311-.834 0-1.514.614-1.514 1.373v10.002l.004.004ZM911.676 244.289h-6.912v-.61c0-.672.548-1.219 1.22-1.219h4.472c.672 0 1.22.547 1.22 1.219v.61Z"/><path fill="#B7C0FF" d="M965.527 267.762h-.187v7.629h.187v-7.629Z"/><path fill="#B7C0FF" d="M965.722 275.76v.009c-.017.012-.1.062-.291.062a.573.573 0 0 1-.29-.062s-.004-.004-.004-.009v-2.053c0-.149.128-.266.286-.266.166 0 .303.125.303.282v2.037h-.004ZM964.393 267.496h.88a.25.25 0 0 1 .249.249v.124h-1.377v-.124c0-.137.111-.249.248-.249ZM945.317 275.469h.187v-7.459h-.187v7.459Z"/><path fill="#B7C0FF" d="M945.123 275.836v.008c.017.012.1.058.291.058.178 0 .269-.05.29-.058 0 0 .004-.004.004-.008v-2.008c0-.145-.128-.262-.286-.262-.166 0-.303.125-.303.274v1.996h.004ZM946.699 268.113h-1.377v-.12c0-.133.108-.245.244-.245h.892c.133 0 .245.108.245.245v.12h-.004Z"/><path fill="#172A88" d="M1802.22 29.773h-8.59v380.902h8.59V29.773Z"/><path fill="#172A88" d="M1811.34 429.327a.45.45 0 0 1-.18.356c-.85.623-4.72 3.05-13.49 3.05-8.28 0-12.54-2.452-13.47-3.058a.43.43 0 0 1-.2-.369V326.858c0-7.372 5.98-13.35 13.35-13.35 7.72 0 13.99 6.264 13.99 13.989v101.83ZM1740.62 16.477h59.18a2.37 2.37 0 0 1 2.37 2.372v16.225h-63.92V18.85a2.37 2.37 0 0 1 2.37-2.373ZM132.918 410.023h8.588V29.121h-8.588v380.902Z"/><path fill="#172A88" d="M123.797 428.678c0 .141.066.274.182.357.847.622 4.713 3.049 13.487 3.049 8.281 0 12.541-2.452 13.475-3.057a.44.44 0 0 0 .195-.37V326.209c0-7.372-5.978-13.35-13.35-13.35-7.725 0-13.989 6.265-13.989 13.989v101.83ZM196.887 34.418h-63.925V18.193a2.372 2.372 0 0 1 2.373-2.373h59.179a2.372 2.372 0 0 1 2.373 2.373v16.225Z"/><path fill="#000553" d="M1031.97 457.543c.11.037.22.058.32.099l.01-.099h-.33Z"/><path fill="#304280" d="m1068.48 457.542-.02-.116c-.12.033-.24.074-.36.116h.38ZM1069.61 457.273h-1.16l.02.154a4.7 4.7 0 0 1 1.14-.154Z"/><path fill="#161615" d="m552.855 445.034 16.711.522s6.015-2.178 7.152-15.519c1.132-13.342-15.595-22.9-15.595-22.9"/><path fill="#161615" d="M565.373 417.809c-1.191-11.189-6.343-19.602-12.516-19.602s-10.405 6.161-11.595 17.349"/><path fill="#161615" d="M552.857 445.04c6.404 0 11.595-9.976 11.595-22.282s-5.191-22.281-11.595-22.281c-6.404 0-11.595 9.975-11.595 22.281s5.191 22.282 11.595 22.282Z"/><path fill="#161615" d="M552.857 434.439c3.359 0 6.082-5.232 6.082-11.686s-2.723-11.687-6.082-11.687-6.082 5.233-6.082 11.687 2.723 11.686 6.082 11.686Z"/><path fill="#161615" d="M552.855 431.219c2.433 0 4.406-3.79 4.406-8.467 0-4.676-1.973-8.467-4.406-8.467s-4.406 3.791-4.406 8.467c0 4.677 1.973 8.467 4.406 8.467ZM737.229 421.061l-15.026-.589s-5.26-2.336-5.434-14.379c-.174-12.039 18.623-23.933 18.623-23.933"/><path fill="#EC902E" d="M726.014 395.537c1.991-11.181 7.869-18.673 14.296-18.221 2.679.191 5.019 1.606 6.766 4.091 1.41 2.012 1.995 4.679 2.298 7.442l-3.086.336c-.424-3.87-2.61-7.326-6.277-7.583-4.447-.316-12.375 4.858-13.993 13.935h-.004Z"/><path fill="#2E302C" d="M749.018 401.791c.778-11.039-3.249-20.317-8.995-20.721-5.746-.405-11.034 8.216-11.812 19.255-.778 11.039 3.25 20.316 8.995 20.72 5.746.405 11.034-8.215 11.812-19.254Z"/><path fill="#777" d="M744.071 401.438c.408-5.791-1.703-10.658-4.715-10.87-3.013-.213-5.785 4.31-6.193 10.102-.408 5.791 1.703 10.658 4.715 10.871 3.012.212 5.785-4.311 6.193-10.103Z"/><path fill="#666" d="M742.568 401.334c.296-4.196-1.234-7.723-3.416-7.876-2.183-.154-4.192 3.123-4.488 7.319-.295 4.196 1.234 7.723 3.417 7.876 2.183.154 4.192-3.123 4.487-7.319Z"/><path fill="#161615" d="m706.919 447.848-17.748-.693s-6.214-2.759-6.418-16.98c-.203-14.221 19.818-25.937 19.818-25.937"/><path fill="#EC902E" d="m694.158 419.787-.137-2.025c2.324-13.022 9.115-21.755 16.516-21.232 7.529.531 12.275 5.617 12.732 18.353l-3.556 2.647c-.385-10.799-3.928-15.648-9.525-16.042-5.43-.382-14.084 7.401-16.025 18.299h-.005Z"/><path fill="#2E302C" d="M720.846 425.087c.918-13.039-3.838-23.996-10.623-24.474-6.786-.478-13.032 9.704-13.95 22.743-.919 13.039 3.837 23.996 10.623 24.474 6.786.479 13.031-9.704 13.95-22.743Z"/><path fill="#777" d="M715.003 424.675c.482-6.839-2.012-12.585-5.571-12.836-3.558-.251-6.834 5.089-7.316 11.928-.481 6.838 2.013 12.585 5.571 12.835 3.559.251 6.834-5.089 7.316-11.927Z"/><path fill="#666" d="M713.23 424.549c.349-4.955-1.458-9.119-4.036-9.3-2.578-.182-4.951 3.688-5.3 8.643-.349 4.955 1.458 9.119 4.036 9.3 2.578.182 4.951-3.688 5.3-8.643Z"/><path fill="#F7B35E" d="m694.834 313.002 14.81 22.216 14.28 3.215a35.034 35.034 0 0 1 24.223 19.718l1.074 29.454c-1.705-3.858-4.31-6.384-7.401-6.645-6.152-.523-11.906 8.089-12.852 19.232-.315 3.692-.058 7.194.647 10.251l-6.351 4.439c-1.095-9.239-5.372-16.121-11.035-16.602-7.281-.618-14.089 9.57-15.209 22.763a42.32 42.32 0 0 0-.103 5.696l-3.199 3.103s2.108 6.583-41.012 6.011l-90.621.46h-7.177a20.474 20.474 0 0 1-19.988-16.029l-1.609-7.231a90.99 90.99 0 0 1-2.149-21.506l.626-31.562a11.082 11.082 0 0 1 7.186-10.156l9.404-3.526a20.439 20.439 0 0 0 10.235-8.43l14.179-23.045s3.975-8.555 58.503-8.555 63.535 6.721 63.535 6.721l.004.008Z"/><path fill="#FFD8A2" d="m567.039 379.119 9.736-10.131a63.958 63.958 0 0 1 28.866-49.691l19.867-12.981c-49.015.581-52.707 8.517-52.707 8.517l-14.18 23.045a20.472 20.472 0 0 1-10.234 8.43l-9.405 3.527a11.075 11.075 0 0 0-7.185 10.155l-.626 31.562a90.44 90.44 0 0 0 2.149 21.506l1.609 7.231a20.474 20.474 0 0 0 19.988 16.03h7.177l11.773-.058-10.566-15.98c-8.534-12.906-6.978-30.002 3.742-41.158l-.004-.004Z" opacity=".59"/><path fill="#F7A032" d="M696.348 358.147v69.148l.568-.552a42.489 42.489 0 0 1 .104-5.696c1.12-13.188 7.928-23.381 15.209-22.763 5.662.481 9.939 7.36 11.035 16.603l6.351-4.439c-.701-3.058-.958-6.559-.647-10.251.51-5.995 2.41-11.255 5.015-14.757v-16.079a23.004 23.004 0 0 0-16.312-22.012 10.793 10.793 0 0 0-7.986.684l-10.3 5.182a5.522 5.522 0 0 0-3.041 4.936l.004-.004Z" opacity=".59"/><path fill="#F7A032" d="M712.368 342.713a23.627 23.627 0 0 1-1.941 1.755c-2.162-1.83-2.85-5.186-1.589-7.725 1.771.029 3.717-.718 4.895-2.074.174-.199 2.805-3.199 2.863-3.145l3.173 3.02c-1.294 1.357-2.356 2.651-3.472 4.124-1.083 1.431-2.684 2.796-3.924 4.045h-.005Z"/><path fill="#FFD8A2" d="M721.682 339.024a9.099 9.099 0 1 0-.002-18.198 9.099 9.099 0 0 0 .002 18.198Z"/><path fill="#fff" d="M721.684 336.879a6.957 6.957 0 1 0 0-13.915 6.957 6.957 0 0 0 0 13.915Z"/><path fill="#F7A032" d="M552.858 365.494c13.287 0 18.353 7.807 23.783 19.934l3.398 7.591h53.794l3.63-7.894a33.715 33.715 0 0 1 30.633-19.631h1.684l-.95-4.31-115.516 1.14-.46 3.174.004-.004Z"/><path fill="#fff" d="m560.396 344.474 10.704-18.739a18.714 18.714 0 0 1 16.25-9.434h64.177c8.513 0 15.416 6.903 15.416 15.416v12.371l-106.547.386ZM705.49 334.257l-28.123 9.247 1.236-23.572a4.188 4.188 0 0 1 3.817-3.953l4.335-.378a10.268 10.268 0 0 1 9.463 4.58l9.268 14.076h.004Z"/><path fill="#EAEEFF" d="M636.07 384.672h-59.067a.519.519 0 0 0-.519.518v11.367a.52.52 0 0 0 .519.519h59.067a.518.518 0 0 0 .518-.519V385.19a.518.518 0 0 0-.518-.518Z"/><path fill="#FFD8A2" d="M612.824 368.988h-11.815a2.602 2.602 0 0 0 0 5.203h11.815a2.602 2.602 0 0 0 0-5.203ZM705.491 363.968c1.5 0 2.717-1.538 2.717-3.435s-1.217-3.435-2.717-3.435c-1.501 0-2.718 1.538-2.718 3.435s1.217 3.435 2.718 3.435Z"/><path fill="#CA5656" d="M544.914 355.871a6.986 6.986 0 0 0-6.986 6.986v3.659a6.986 6.986 0 0 0 6.986 6.986h3.783v-17.631h-3.783ZM549.623 355.895v17.589c3.97-.261 10.77-3.277 10.77-6.965v-3.659c0-3.688-6.8-6.704-10.77-6.965Z"/><path fill="#E97E7E" d="M543.3 373.307c-2.651-7.239-1.103-13.52.539-17.358a6.989 6.989 0 0 0-5.911 6.903v3.659a6.985 6.985 0 0 0 5.372 6.796Z"/><path fill="#CA5656" d="M675.77 373.502a6.986 6.986 0 0 0 6.986-6.986v-3.659a6.986 6.986 0 0 0-6.986-6.986h-3.784v17.631h3.784ZM671.061 373.484v-17.589c-3.971.261-10.77 3.277-10.77 6.965v3.659c0 3.688 6.799 6.704 10.77 6.965Z"/><path fill="#E97E7E" d="m543.036 421.222 5.185-4.472c1.066-.921.498-2.667-.904-2.788l-6.945-.589a1.588 1.588 0 0 0-1.634 2.108l1.759 5.061a1.587 1.587 0 0 0 2.539.68Z"/><path fill="#CA5656" d="m671.651 421.222-5.186-4.472c-1.066-.921-.497-2.667.905-2.788l6.944-.589a1.588 1.588 0 0 1 1.635 2.108l-1.759 5.061a1.587 1.587 0 0 1-2.539.68Z"/><path fill="#F7A032" d="M557.193 436.31c0-6.667 5.405-12.076 12.076-12.076a12.05 12.05 0 0 1 12.072 11.981l55.259-.283c.199-6.496 5.522-11.698 12.064-11.698s11.852 5.194 12.064 11.678c4.007 0 7.376-.05 10.247-.15-1.261-2.92-2.51-5.845-3.746-8.778l-.112-.261c-3.174-7.534-10.534-12.442-18.706-12.442h-84.369a20.286 20.286 0 0 0-17.158 9.463l-5.099 8.081c1.294.955 3.029 2.203 5.352 3.199 2.049.879 4.264 1.29 6.492 1.29h3.564v-.004Z"/><path fill="#B7C0FF" d="M652.504 327.199h-69.426v.954h69.426v-.954ZM653.453 330.938h-72.408v.954h72.408v-.954ZM654.025 334.68H578.92v.954h75.105v-.954ZM654.655 338.418h-77.801v.954h77.801v-.954ZM573.05 343.917c-1.942-1.958-2.432-5.061-1.199-7.596l6.683-13.765c1.153-2.373 2.904-4.389 5.032-5.791.058-.037.129-.079.212-.12a18.703 18.703 0 0 0-12.678 9.089l-10.704 18.739 13.16-.05-.506-.51v.004Z"/></g></g></svg>