<svg width="164" height="48" viewBox="0 0 164 48" fill="none" xmlns="http://www.w3.org/2000/svg">
<rect x="0.145508" width="163.854" height="48" rx="8" fill="black"/>
<path d="M61.6002 13.8098C61.6166 14.1765 61.5586 14.5428 61.4297 14.8865C61.3008 15.2302 61.1037 15.5443 60.8502 15.8098C60.5661 16.1031 60.2233 16.3331 59.8442 16.4847C59.4651 16.6364 59.0582 16.7063 58.6502 16.6898C58.2399 16.6989 57.832 16.6238 57.4519 16.469C57.0717 16.3142 56.7274 16.083 56.4402 15.7898C55.8575 15.1938 55.5312 14.3933 55.5312 13.5598C55.5312 12.7263 55.8575 11.9258 56.4402 11.3298C56.8857 10.8945 57.4499 10.6005 58.062 10.4849C58.674 10.3692 59.3066 10.437 59.8802 10.6798C60.2408 10.828 60.5624 11.0573 60.8202 11.3498L60.2902 11.8798C60.0916 11.6406 59.84 11.4509 59.5553 11.3259C59.2706 11.201 58.9607 11.1441 58.6502 11.1598C58.2582 11.1625 57.8729 11.2612 57.5278 11.4472C57.1828 11.6332 56.8886 11.9009 56.6709 12.2269C56.4532 12.5529 56.3187 12.9272 56.2791 13.3172C56.2395 13.7072 56.296 14.101 56.4437 14.464C56.5914 14.8271 56.8258 15.1485 57.1264 15.4001C57.427 15.6517 57.7846 15.8259 58.168 15.9073C58.5514 15.9888 58.949 15.9751 59.3259 15.8675C59.7028 15.7598 60.0476 15.5615 60.3302 15.2898C60.6357 14.9549 60.8128 14.5227 60.8302 14.0698H58.6502V13.3498H61.5602C61.583 13.5022 61.5963 13.6558 61.6002 13.8098Z" fill="white" stroke="white" stroke-width="0.2" stroke-miterlimit="10"/>
<path d="M66.1802 11.3098H63.4802V13.2098H65.9402V13.9298H63.4802V15.8298H66.1802V16.5698H62.7002V10.5698H66.1802V11.3098Z" fill="white" stroke="white" stroke-width="0.2" stroke-miterlimit="10"/>
<path d="M69.4598 16.5698H68.6898V11.3098H67.0098V10.5698H71.1798V11.3098H69.4598V16.5698Z" fill="white" stroke="white" stroke-width="0.2" stroke-miterlimit="10"/>
<path d="M74.1201 16.5698V10.5698H74.8901V16.5698H74.1201Z" fill="white" stroke="white" stroke-width="0.2" stroke-miterlimit="10"/>
<path d="M78.3094 16.5698H77.5394V11.3098H75.8594V10.5698H79.9794V11.3098H78.3094V16.5698Z" fill="white" stroke="white" stroke-width="0.2" stroke-miterlimit="10"/>
<path d="M87.7898 15.7897C87.501 16.0788 87.1581 16.3081 86.7806 16.4645C86.4031 16.621 85.9985 16.7015 85.5899 16.7015C85.1812 16.7015 84.7766 16.621 84.3991 16.4645C84.0216 16.3081 83.6787 16.0788 83.3898 15.7897C82.8245 15.1888 82.5098 14.3948 82.5098 13.5697C82.5098 12.7447 82.8245 11.9507 83.3898 11.3497C83.6724 11.0525 84.0143 10.818 84.3933 10.6612C84.7722 10.5044 85.1799 10.429 85.5899 10.4397C85.9992 10.4332 86.4056 10.5106 86.784 10.6671C87.1623 10.8236 87.5047 11.0559 87.7898 11.3497C88.0774 11.6422 88.3034 11.9894 88.4546 12.3707C88.6057 12.7519 88.6789 13.1597 88.6698 13.5697C88.683 13.9803 88.6116 14.3892 88.4603 14.7711C88.3089 15.1529 88.0807 15.4996 87.7898 15.7897ZM83.9598 15.2897C84.1729 15.5056 84.4267 15.677 84.7065 15.794C84.9863 15.911 85.2866 15.9712 85.5899 15.9712C85.8931 15.9712 86.1934 15.911 86.4732 15.794C86.753 15.677 87.0068 15.5056 87.2198 15.2897C87.6513 14.8208 87.8908 14.2069 87.8908 13.5697C87.8908 12.9325 87.6513 12.3186 87.2198 11.8497C87.0068 11.6338 86.753 11.4624 86.4732 11.3454C86.1934 11.2284 85.8931 11.1682 85.5899 11.1682C85.2866 11.1682 84.9863 11.2284 84.7065 11.3454C84.4267 11.4624 84.1729 11.6338 83.9598 11.8497C83.5284 12.3186 83.2889 12.9325 83.2889 13.5697C83.2889 14.2069 83.5284 14.8208 83.9598 15.2897Z" fill="white" stroke="white" stroke-width="0.2" stroke-miterlimit="10"/>
<path d="M89.7598 16.5698V10.5698H90.6898L93.6098 15.2398V14.0798V10.5698H94.3798V16.5698H93.5798L90.5298 11.6798V12.8298V16.5698H89.7598Z" fill="white" stroke="white" stroke-width="0.2" stroke-miterlimit="10"/>
<path d="M82.3198 25.3197C81.4772 25.3217 80.6542 25.5735 79.9548 26.0432C79.2553 26.513 78.7109 27.1796 78.3903 27.9588C78.0697 28.7379 77.9873 29.5947 78.1536 30.4206C78.3199 31.2466 78.7274 32.0047 79.3246 32.5991C79.9218 33.1934 80.6818 33.5974 81.5085 33.7598C82.3353 33.9223 83.1916 33.8359 83.9693 33.5116C84.7469 33.1874 85.411 32.6398 85.8774 31.9382C86.3439 31.2365 86.5918 30.4123 86.5898 29.5697C86.5979 29.0077 86.4929 28.4497 86.281 27.9291C86.069 27.4085 85.7545 26.9358 85.356 26.5393C84.9576 26.1427 84.4835 25.8304 83.9619 25.6209C83.4403 25.4114 82.8818 25.309 82.3198 25.3197ZM82.3198 32.1497C81.8034 32.1859 81.288 32.0658 80.8408 31.8051C80.3935 31.5445 80.035 31.1553 79.8118 30.6882C79.5887 30.2211 79.5112 29.6976 79.5895 29.1859C79.6677 28.6742 79.8982 28.1978 80.2508 27.8188C80.6033 27.4397 81.0618 27.1755 81.5666 27.0605C82.0713 26.9455 82.599 26.985 83.081 27.1738C83.563 27.3627 83.977 27.6922 84.2693 28.1195C84.5616 28.5467 84.7185 29.0521 84.7198 29.5697C84.7359 29.8978 84.6862 30.2257 84.5735 30.5342C84.4609 30.8427 84.2876 31.1255 84.0639 31.3659C83.8402 31.6064 83.5707 31.7996 83.2711 31.9342C82.9716 32.0689 82.6481 32.1421 82.3198 32.1497ZM72.9998 25.3197C72.1572 25.3217 71.3342 25.5735 70.6348 26.0432C69.9353 26.513 69.3909 27.1796 69.0703 27.9588C68.7497 28.7379 68.6673 29.5947 68.8336 30.4206C68.9999 31.2466 69.4074 32.0047 70.0046 32.5991C70.6018 33.1934 71.3618 33.5974 72.1885 33.7598C73.0153 33.9223 73.8716 33.8359 74.6493 33.5116C75.4269 33.1874 76.091 32.6398 76.5574 31.9382C77.0239 31.2365 77.2718 30.4123 77.2698 29.5697C77.2779 29.0077 77.1729 28.4497 76.961 27.9291C76.749 27.4085 76.4345 26.9358 76.036 26.5393C75.6376 26.1427 75.1635 25.8304 74.6419 25.6209C74.1203 25.4114 73.5618 25.309 72.9998 25.3197ZM72.9998 32.1497C72.4834 32.1859 71.968 32.0658 71.5208 31.8051C71.0735 31.5445 70.715 31.1553 70.4918 30.6882C70.2687 30.2211 70.1912 29.6976 70.2695 29.1859C70.3477 28.6742 70.5782 28.1978 70.9308 27.8188C71.2833 27.4397 71.7418 27.1755 72.2466 27.0605C72.7513 26.9455 73.279 26.985 73.761 27.1738C74.243 27.3627 74.657 27.6922 74.9493 28.1195C75.2416 28.5467 75.3985 29.0521 75.3998 29.5697C75.4159 29.8978 75.3662 30.2257 75.2535 30.5342C75.1409 30.8427 74.9676 31.1255 74.7439 31.3659C74.5202 31.6064 74.2507 31.7996 73.9511 31.9342C73.6516 32.0689 73.3281 32.1421 72.9998 32.1497ZM61.9198 26.6297V28.4297H66.2398C66.1721 29.2776 65.8196 30.0775 65.2398 30.6997C64.8064 31.1413 64.2852 31.4869 63.7099 31.7143C63.1346 31.9416 62.5179 32.0457 61.8998 32.0197C60.6267 32.0197 59.4058 31.514 58.5057 30.6139C57.6055 29.7137 57.0998 28.4928 57.0998 27.2197C57.0998 25.9467 57.6055 24.7258 58.5057 23.8256C59.4058 22.9255 60.6267 22.4197 61.8998 22.4197C63.1202 22.4016 64.2987 22.8651 65.1798 23.7097L66.4498 22.4397C65.8538 21.8503 65.1461 21.3856 64.3682 21.0731C63.5904 20.7606 62.758 20.6065 61.9198 20.6197C61.0308 20.5851 60.1439 20.7304 59.3124 21.0467C58.4809 21.3631 57.7218 21.844 57.0805 22.4608C56.4393 23.0775 55.9292 23.8173 55.5808 24.6359C55.2323 25.4545 55.0527 26.3351 55.0527 27.2247C55.0527 28.1144 55.2323 28.9949 55.5808 29.8135C55.9292 30.6322 56.4393 31.372 57.0805 31.9887C57.7218 32.6055 58.4809 33.0864 59.3124 33.4028C60.1439 33.7191 61.0308 33.8643 61.9198 33.8297C62.7752 33.8639 63.6282 33.7167 64.4227 33.3979C65.2172 33.0791 65.9353 32.5958 66.5298 31.9797C67.5799 30.8262 68.1395 29.3089 68.0898 27.7497C68.0934 27.3745 68.0632 26.9996 67.9998 26.6297H61.9198ZM107.23 28.0297C106.969 27.2625 106.481 26.5925 105.831 26.1086C105.181 25.6247 104.4 25.3496 103.59 25.3197C103.043 25.3187 102.501 25.4298 101.999 25.6463C101.497 25.8628 101.044 26.18 100.669 26.5783C100.294 26.9766 100.005 27.4476 99.8194 27.9621C99.6337 28.4767 99.5556 29.0238 99.5898 29.5697C99.5812 30.4826 99.8682 31.3737 100.408 32.11C100.948 32.8463 101.711 33.3882 102.584 33.6549C103.457 33.9215 104.393 33.8986 105.252 33.5895C106.111 33.2803 106.847 32.7016 107.35 31.9397L105.9 30.9397C105.684 31.3 105.377 31.5975 105.01 31.8028C104.644 32.008 104.23 32.1138 103.81 32.1097C103.376 32.1276 102.948 32.014 102.58 31.7838C102.212 31.5535 101.923 31.2175 101.75 30.8197L107.44 28.4697L107.23 28.0297ZM101.43 29.4497C101.41 29.1391 101.451 28.8276 101.553 28.5334C101.655 28.2391 101.814 27.9682 102.022 27.7363C102.229 27.5044 102.481 27.3163 102.762 27.1829C103.044 27.0496 103.349 26.9737 103.66 26.9597C103.982 26.9401 104.303 27.0159 104.582 27.1778C104.861 27.3397 105.087 27.5804 105.23 27.8697L101.43 29.4497ZM96.8098 33.5697H98.6798V21.0697H96.8098V33.5697ZM93.7498 26.2697H93.6798C93.4004 25.9516 93.0557 25.6976 92.6691 25.525C92.2825 25.3524 91.8631 25.2653 91.4398 25.2697C90.347 25.3227 89.3164 25.7942 88.5618 26.5863C87.8071 27.3785 87.3861 28.4306 87.3861 29.5247C87.3861 30.6188 87.8071 31.671 88.5618 32.4632C89.3164 33.2553 90.347 33.7268 91.4398 33.7797C91.8638 33.7882 92.2844 33.703 92.6716 33.5302C93.0588 33.3573 93.4031 33.1011 93.6798 32.7797H93.7498V33.3897C93.7498 35.0197 92.8798 35.8897 91.4798 35.8897C91.0121 35.8795 90.558 35.7304 90.1752 35.4616C89.7924 35.1927 89.4982 34.8162 89.3298 34.3797L87.7098 35.0497C88.0093 35.802 88.53 36.4456 89.2032 36.8956C89.8763 37.3455 90.6702 37.5806 91.4798 37.5697C93.6698 37.5697 95.4798 36.2797 95.4798 33.1397V25.5697H93.7498V26.2697ZM91.5998 32.1497C90.9446 32.1089 90.3296 31.8198 89.8801 31.3414C89.4306 30.863 89.1803 30.2312 89.1803 29.5747C89.1803 28.9183 89.4306 28.2865 89.8801 27.8081C90.3296 27.3297 90.9446 27.0406 91.5998 26.9997C91.92 27.0136 92.2342 27.0917 92.5237 27.2294C92.8131 27.3671 93.0719 27.5616 93.2846 27.8014C93.4973 28.0412 93.6596 28.3213 93.7619 28.6251C93.8641 28.9289 93.9042 29.2501 93.8798 29.5697C93.9071 29.8904 93.869 30.2133 93.768 30.5189C93.6669 30.8245 93.5049 31.1064 93.2918 31.3475C93.0786 31.5887 92.8188 31.7841 92.528 31.922C92.2372 32.0599 91.9214 32.1374 91.5998 32.1497ZM115.99 21.0697H111.51V33.5697H113.38V28.8297H115.99C116.523 28.868 117.058 28.7961 117.562 28.6185C118.066 28.4408 118.528 28.1613 118.919 27.7972C119.31 27.4332 119.622 26.9925 119.835 26.5026C120.048 26.0127 120.159 25.4841 120.159 24.9497C120.159 24.4154 120.048 23.8868 119.835 23.3969C119.622 22.907 119.31 22.4663 118.919 22.1023C118.528 21.7382 118.066 21.4587 117.562 21.281C117.058 21.1034 116.523 21.0315 115.99 21.0697ZM115.99 27.0697H113.38V22.8097H116.03C116.311 22.8097 116.589 22.8651 116.849 22.9726C117.108 23.0802 117.344 23.2378 117.543 23.4365C117.742 23.6353 117.899 23.8712 118.007 24.1308C118.114 24.3904 118.17 24.6687 118.17 24.9497C118.17 25.2308 118.114 25.5091 118.007 25.7687C117.899 26.0283 117.742 26.2642 117.543 26.463C117.344 26.6617 117.108 26.8193 116.849 26.9268C116.589 27.0344 116.311 27.0897 116.03 27.0897L115.99 27.0697ZM127.53 25.2797C126.849 25.2378 126.17 25.3963 125.579 25.7358C124.987 26.0752 124.507 26.5807 124.2 27.1897L125.85 27.8797C126.017 27.5792 126.267 27.3333 126.57 27.1718C126.874 27.0103 127.217 26.9401 127.56 26.9697C127.797 26.942 128.038 26.9618 128.267 27.0281C128.497 27.0943 128.711 27.2056 128.897 27.3555C129.083 27.5053 129.238 27.6908 129.352 27.901C129.465 28.1112 129.536 28.3419 129.56 28.5797V28.6997C128.958 28.3837 128.289 28.2189 127.61 28.2197C125.83 28.2197 124.01 29.2197 124.01 31.0397C124.027 31.4266 124.123 31.806 124.29 32.1553C124.457 32.5046 124.692 32.8168 124.982 33.0734C125.273 33.3299 125.611 33.5255 125.978 33.6485C126.346 33.7716 126.734 33.8196 127.12 33.7897C127.589 33.8157 128.057 33.7164 128.475 33.502C128.893 33.2876 129.247 32.9659 129.5 32.5697H129.56V33.5697H131.36V28.7597C131.36 26.5697 129.7 25.2997 127.57 25.2997L127.53 25.2797ZM127.3 32.1297C126.69 32.1297 125.84 31.8197 125.84 31.0697C125.84 30.0697 126.9 29.7297 127.84 29.7297C128.434 29.7151 129.021 29.8601 129.54 30.1497C129.477 30.6928 129.219 31.1947 128.815 31.5625C128.41 31.9302 127.886 32.1389 127.34 32.1497L127.3 32.1297ZM137.92 25.5697L135.78 30.9897H135.72L133.5 25.5697H131.5L134.83 33.1497L132.93 37.3597H134.88L140 25.5697H137.92ZM121.12 33.5697H122.98V21.0697H121.12V33.5697Z" fill="white"/>
<path d="M24.6198 11.1098C24.2903 11.4994 24.1221 12.0003 24.1498 12.5098V34.6298C24.1158 35.1402 24.2847 35.6433 24.6198 36.0298L24.6898 36.1098L37.0798 23.7198V23.4198L24.6898 11.0398L24.6198 11.1098Z" fill="url(#paint0_linear_1391_419)"/>
<path d="M41.1801 27.8498L37.0801 23.7198V23.4198L41.1801 19.2898L41.2701 19.3498L46.1801 22.1298C47.5801 22.9198 47.5801 24.2198 46.1801 25.0198L41.2901 27.7998L41.1801 27.8498Z" fill="url(#paint1_linear_1391_419)"/>
<path d="M41.3001 27.7898L37.0801 23.5698L24.6201 36.0298C24.9027 36.2813 25.2644 36.4261 25.6425 36.4388C26.0206 36.4516 26.3912 36.3317 26.6901 36.0998L41.3001 27.7898Z" fill="url(#paint2_linear_1391_419)"/>
<path d="M41.3001 19.3498L26.6901 11.0498C26.3931 10.8147 26.0228 10.6919 25.6442 10.7028C25.2656 10.7138 24.903 10.8579 24.6201 11.1098L37.0801 23.5698L41.3001 19.3498Z" fill="url(#paint3_linear_1391_419)"/>
<path opacity="0.2" d="M41.1801 27.6997L26.6901 35.9497C26.4021 36.1671 26.051 36.2847 25.6901 36.2847C25.3292 36.2847 24.9782 36.1671 24.6901 35.9497L24.6201 36.0197L24.6901 36.0997C24.9782 36.3171 25.3292 36.4347 25.6901 36.4347C26.051 36.4347 26.4021 36.3171 26.6901 36.0997L41.3001 27.7897L41.1801 27.6997Z" fill="black"/>
<path opacity="0.12" d="M24.6196 35.8897C24.2984 35.4931 24.1409 34.9887 24.1796 34.4797V34.6297C24.1455 35.1401 24.3145 35.6433 24.6496 36.0297L24.7196 35.9597L24.6196 35.8897Z" fill="black"/>
<path opacity="0.12" d="M46.1797 24.8698L41.1797 27.6998L41.2697 27.7898L46.1797 25.0098C46.4695 24.8873 46.7209 24.6888 46.9075 24.4354C47.094 24.182 47.2088 23.883 47.2397 23.5698C47.1772 23.8544 47.0487 24.1203 46.8646 24.3461C46.6804 24.5719 46.4458 24.7513 46.1797 24.8698Z" fill="black"/>
<path opacity="0.25" d="M26.6894 11.1898L46.1794 22.2698C46.4456 22.3883 46.6802 22.5677 46.8643 22.7935C47.0484 23.0193 47.1769 23.2852 47.2394 23.5698C47.2085 23.2566 47.0938 22.9576 46.9072 22.7042C46.7207 22.4508 46.4692 22.2524 46.1794 22.1298L26.6894 11.0498C25.2994 10.2498 24.1494 10.9098 24.1494 12.5098V12.6598C24.1794 11.0598 25.2994 10.3998 26.6894 11.1898Z" fill="white"/>
<defs>
<linearGradient id="paint0_linear_1391_419" x1="35.9798" y1="12.2798" x2="19.1998" y2="29.0598" gradientUnits="userSpaceOnUse">
<stop stop-color="#00A0FF"/>
<stop offset="0.01" stop-color="#00A1FF"/>
<stop offset="0.26" stop-color="#00BEFF"/>
<stop offset="0.51" stop-color="#00D2FF"/>
<stop offset="0.76" stop-color="#00DFFF"/>
<stop offset="1" stop-color="#00E3FF"/>
</linearGradient>
<linearGradient id="paint1_linear_1391_419" x1="48.0101" y1="23.5698" x2="23.8201" y2="23.5698" gradientUnits="userSpaceOnUse">
<stop stop-color="#FFE000"/>
<stop offset="0.41" stop-color="#FFBD00"/>
<stop offset="0.78" stop-color="#FFA500"/>
<stop offset="1" stop-color="#FF9C00"/>
</linearGradient>
<linearGradient id="paint2_linear_1391_419" x1="39.0101" y1="25.8698" x2="16.2501" y2="48.6198" gradientUnits="userSpaceOnUse">
<stop stop-color="#FF3A44"/>
<stop offset="1" stop-color="#C31162"/>
</linearGradient>
<linearGradient id="paint3_linear_1391_419" x1="21.4801" y1="3.74979" x2="31.6401" y2="13.9098" gradientUnits="userSpaceOnUse">
<stop stop-color="#32A071"/>
<stop offset="0.07" stop-color="#2DA771"/>
<stop offset="0.48" stop-color="#15CF74"/>
<stop offset="0.8" stop-color="#06E775"/>
<stop offset="1" stop-color="#00F076"/>
</linearGradient>
</defs>
</svg>
