<svg width="149" height="48" viewBox="0 0 149 48" fill="none" xmlns="http://www.w3.org/2000/svg">
<rect x="0.628906" width="147.516" height="48" rx="8" fill="black"/>
<path d="M39.4262 23.3365C39.437 22.5018 39.6587 21.6834 40.0707 20.9575C40.4827 20.2315 41.0717 19.6216 41.7828 19.1844C41.331 18.5392 40.7351 18.0083 40.0423 17.6337C39.3494 17.2592 38.5788 17.0514 37.7916 17.0267C36.1124 16.8505 34.4844 18.0316 33.6287 18.0316C32.7564 18.0316 31.4389 17.0442 30.0202 17.0734C29.1025 17.1031 28.2082 17.3699 27.4243 17.848C26.6404 18.326 25.9938 18.999 25.5473 19.8013C23.6133 23.1497 25.0559 28.0708 26.9085 30.7774C27.8354 32.1027 28.9187 33.5832 30.3361 33.5307C31.7232 33.4731 32.2412 32.6462 33.9155 32.6462C35.5743 32.6462 36.0603 33.5307 37.5065 33.4973C38.9949 33.4731 39.9327 32.166 40.827 30.8281C41.493 29.8838 42.0055 28.8401 42.3455 27.7356C41.4808 27.3699 40.7428 26.7577 40.2237 25.9754C39.7046 25.1931 39.4272 24.2753 39.4262 23.3365Z" fill="white"/>
<path d="M36.6948 15.2467C37.5063 14.2725 37.9061 13.0203 37.8093 11.7561C36.5695 11.8863 35.4242 12.4789 34.6017 13.4157C34.1996 13.8734 33.8916 14.4058 33.6954 14.9826C33.4991 15.5594 33.4185 16.1691 33.458 16.7771C34.0782 16.7835 34.6917 16.6491 35.2523 16.384C35.813 16.1189 36.3062 15.7301 36.6948 15.2467Z" fill="white"/>
<path d="M56.96 30.1756H52.2266L51.0898 33.532H49.085L53.5684 21.114H55.6514L60.1348 33.532H58.0957L56.96 30.1756ZM52.7168 28.6267H56.4688L54.6192 23.1795H54.5674L52.7168 28.6267Z" fill="white"/>
<path d="M69.8174 29.0056C69.8174 31.8191 68.3116 33.6267 66.0391 33.6267C65.4634 33.6568 64.8909 33.5242 64.3871 33.244C63.8834 32.9639 63.4686 32.5476 63.1905 32.0427H63.1475V36.5271H61.2891V24.4782H63.0879V25.9841H63.1221C63.4131 25.4816 63.8348 25.0674 64.3424 24.7856C64.85 24.5037 65.4246 24.3648 66.0049 24.3835C68.3027 24.3835 69.8174 26.1999 69.8174 29.0056ZM67.9073 29.0056C67.9073 27.1726 66.96 25.9675 65.5147 25.9675C64.0948 25.9675 63.1397 27.198 63.1397 29.0056C63.1397 30.8298 64.0948 32.0515 65.5147 32.0515C66.96 32.0515 67.9073 30.8552 67.9073 29.0056Z" fill="white"/>
<path d="M79.7823 29.0056C79.7823 31.8191 78.2764 33.6267 76.0039 33.6267C75.4283 33.6568 74.8558 33.5242 74.352 33.244C73.8482 32.9639 73.4335 32.5476 73.1553 32.0427H73.1123V36.527H71.2539V24.4782H73.0527V25.9841H73.0869C73.3779 25.4816 73.7996 25.0674 74.3072 24.7856C74.8149 24.5037 75.3894 24.3648 75.9697 24.3835C78.2676 24.3835 79.7823 26.1999 79.7823 29.0056ZM77.8721 29.0056C77.8721 27.1726 76.9248 25.9675 75.4795 25.9675C74.0596 25.9675 73.1045 27.198 73.1045 29.0056C73.1045 30.8298 74.0596 32.0515 75.4795 32.0515C76.9248 32.0515 77.8721 30.8552 77.8721 29.0056H77.8721Z" fill="white"/>
<path d="M86.3682 30.0721C86.5059 31.3035 87.7022 32.1121 89.3369 32.1121C90.9034 32.1121 92.0303 31.3035 92.0303 30.1931C92.0303 29.2293 91.3506 28.6521 89.7412 28.2566L88.1319 27.8689C85.8516 27.3181 84.793 26.2517 84.793 24.5212C84.793 22.3787 86.6602 20.907 89.3116 20.907C91.9356 20.907 93.7344 22.3787 93.795 24.5212H91.919C91.8067 23.282 90.7822 22.5339 89.2852 22.5339C87.7881 22.5339 86.7637 23.2908 86.7637 24.3923C86.7637 25.2703 87.418 25.7869 89.0186 26.1823L90.3867 26.5183C92.9346 27.1208 93.9932 28.1443 93.9932 29.9607C93.9932 32.2839 92.1426 33.739 89.1992 33.739C86.4453 33.739 84.5859 32.3181 84.4658 30.072L86.3682 30.0721Z" fill="white"/>
<path d="M98.0039 22.3357V24.4783H99.7256V25.95H98.0039V30.9412C98.0039 31.7166 98.3486 32.0779 99.1055 32.0779C99.3099 32.0743 99.5139 32.06 99.7168 32.0349V33.4978C99.3765 33.5614 99.0307 33.5901 98.6846 33.5837C96.8516 33.5837 96.1367 32.8952 96.1367 31.1394V25.95H94.8203V24.4783H96.1367V22.3357H98.0039Z" fill="white"/>
<path d="M100.723 29.0056C100.723 26.157 102.4 24.3669 105.017 24.3669C107.642 24.3669 109.312 26.1569 109.312 29.0056C109.312 31.8621 107.65 33.6443 105.017 33.6443C102.384 33.6443 100.723 31.8621 100.723 29.0056ZM107.418 29.0056C107.418 27.0515 106.522 25.8982 105.017 25.8982C103.511 25.8982 102.616 27.0603 102.616 29.0056C102.616 30.9675 103.511 32.1121 105.017 32.1121C106.522 32.1121 107.418 30.9675 107.418 29.0056H107.418Z" fill="white"/>
<path d="M110.844 24.4784H112.616V26.0194H112.659C112.779 25.5381 113.061 25.1128 113.458 24.8149C113.854 24.517 114.341 24.3647 114.837 24.3837C115.051 24.3829 115.265 24.4062 115.474 24.453V26.1913C115.203 26.1087 114.921 26.0707 114.639 26.079C114.369 26.068 114.1 26.1156 113.85 26.2185C113.6 26.3214 113.375 26.4771 113.191 26.675C113.007 26.8729 112.868 27.1083 112.784 27.3649C112.699 27.6216 112.672 27.8935 112.702 28.162V33.5321H110.844L110.844 24.4784Z" fill="white"/>
<path d="M124.042 30.8728C123.792 32.5164 122.191 33.6443 120.144 33.6443C117.51 33.6443 115.875 31.8796 115.875 29.0486C115.875 26.2087 117.519 24.3669 120.065 24.3669C122.57 24.3669 124.146 26.0876 124.146 28.8328V29.4695H117.751V29.5818C117.721 29.915 117.763 30.2507 117.873 30.5665C117.984 30.8823 118.16 31.1711 118.39 31.4137C118.62 31.6562 118.9 31.847 119.209 31.9733C119.519 32.0996 119.852 32.1585 120.187 32.1462C120.626 32.1874 121.066 32.0857 121.443 31.8562C121.82 31.6268 122.112 31.2819 122.277 30.8728L124.042 30.8728ZM117.76 28.1707H122.286C122.303 27.8711 122.257 27.5712 122.153 27.29C122.048 27.0088 121.886 26.7523 121.678 26.5365C121.469 26.3208 121.218 26.1504 120.941 26.0362C120.664 25.922 120.365 25.8664 120.065 25.8728C119.763 25.871 119.463 25.9291 119.183 26.0439C118.903 26.1586 118.648 26.3277 118.434 26.5413C118.219 26.755 118.05 27.0089 117.934 27.2886C117.818 27.5682 117.759 27.868 117.76 28.1707V28.1707Z" fill="white"/>
<path d="M52.4834 11.7668C52.873 11.7388 53.264 11.7977 53.6281 11.9391C53.9922 12.0805 54.3204 12.301 54.589 12.5847C54.8576 12.8683 55.0598 13.208 55.1812 13.5792C55.3026 13.9505 55.3401 14.3441 55.291 14.7316C55.291 16.6379 54.2607 17.7336 52.4834 17.7336H50.3281V11.7668H52.4834ZM51.2549 16.8898H52.3799C52.6583 16.9064 52.9369 16.8608 53.1954 16.7562C53.454 16.6515 53.6859 16.4906 53.8744 16.285C54.0629 16.0795 54.2032 15.8345 54.2851 15.5678C54.3669 15.3012 54.3883 15.0197 54.3476 14.7438C54.3854 14.4689 54.3618 14.1892 54.2787 13.9245C54.1956 13.6598 54.0549 13.4168 53.8669 13.2129C53.6788 13.009 53.448 12.8492 53.1909 12.7449C52.9338 12.6407 52.6569 12.5946 52.3799 12.61H51.2549V16.8898Z" fill="white"/>
<path d="M56.3382 15.4802C56.3099 15.1843 56.3437 14.8857 56.4376 14.6036C56.5314 14.3216 56.6832 14.0622 56.8831 13.8422C57.083 13.6222 57.3267 13.4465 57.5986 13.3262C57.8705 13.2059 58.1644 13.1438 58.4617 13.1438C58.759 13.1438 59.053 13.2059 59.3248 13.3262C59.5967 13.4465 59.8404 13.6222 60.0403 13.8422C60.2403 14.0622 60.392 14.3216 60.4859 14.6036C60.5797 14.8857 60.6135 15.1843 60.5852 15.4802C60.6141 15.7764 60.5806 16.0754 60.487 16.3579C60.3935 16.6404 60.2418 16.9002 60.0418 17.1207C59.8418 17.3411 59.5979 17.5172 59.3258 17.6377C59.0537 17.7583 58.7593 17.8205 58.4617 17.8205C58.1641 17.8205 57.8698 17.7583 57.5976 17.6377C57.3255 17.5172 57.0816 17.3411 56.8816 17.1207C56.6816 16.9002 56.53 16.6404 56.4364 16.3579C56.3428 16.0754 56.3093 15.7764 56.3382 15.4802ZM59.6712 15.4802C59.6712 14.5041 59.2327 13.9333 58.4632 13.9333C57.6907 13.9333 57.2562 14.5041 57.2562 15.4802C57.2562 16.4641 57.6907 17.0305 58.4632 17.0305C59.2327 17.0305 59.6712 16.4602 59.6712 15.4802H59.6712Z" fill="white"/>
<path d="M66.2305 17.7336H65.3086L64.3779 14.4172H64.3076L63.3809 17.7336H62.4678L61.2266 13.2307H62.1279L62.9346 16.6667H63.001L63.9268 13.2307H64.7793L65.7051 16.6667H65.7754L66.5781 13.2307H67.4668L66.2305 17.7336Z" fill="white"/>
<path d="M68.5107 13.2308H69.3662V13.9461H69.4326C69.5453 13.6892 69.7353 13.4738 69.9762 13.33C70.217 13.1862 70.4968 13.1211 70.7764 13.1438C70.9955 13.1274 71.2155 13.1604 71.4201 13.2405C71.6247 13.3206 71.8086 13.4457 71.9583 13.6065C72.108 13.7674 72.2196 13.9598 72.2848 14.1697C72.35 14.3795 72.3671 14.6013 72.335 14.8186V17.7336H71.4463V15.0418C71.4463 14.3182 71.1318 13.9583 70.4746 13.9583C70.3259 13.9514 70.1774 13.9767 70.0393 14.0325C69.9012 14.0883 69.7769 14.1734 69.6748 14.2818C69.5726 14.3901 69.4952 14.5193 69.4476 14.6605C69.4001 14.8016 69.3837 14.9513 69.3994 15.0994V17.7337H68.5107L68.5107 13.2308Z" fill="white"/>
<path d="M73.751 11.4729H74.6396V17.7336H73.751V11.4729Z" fill="white"/>
<path d="M75.8753 15.4803C75.847 15.1843 75.8808 14.8857 75.9747 14.6037C76.0686 14.3216 76.2203 14.0622 76.4203 13.8422C76.6203 13.6223 76.864 13.4465 77.1359 13.3262C77.4077 13.2059 77.7018 13.1438 77.999 13.1438C78.2963 13.1438 78.5903 13.2059 78.8622 13.3262C79.1341 13.4465 79.3778 13.6223 79.5778 13.8422C79.7777 14.0622 79.9295 14.3216 80.0234 14.6037C80.1172 14.8857 80.1511 15.1843 80.1228 15.4803C80.1516 15.7765 80.1181 16.0755 80.0245 16.358C79.9309 16.6405 79.7792 16.9003 79.5792 17.1207C79.3792 17.3412 79.1353 17.5173 78.8631 17.6378C78.591 17.7583 78.2967 17.8206 77.999 17.8206C77.7014 17.8206 77.4071 17.7583 77.1349 17.6378C76.8628 17.5173 76.6189 17.3412 76.4189 17.1207C76.2189 16.9003 76.0672 16.6405 75.9735 16.358C75.8799 16.0755 75.8464 15.7765 75.8753 15.4803ZM79.2083 15.4803C79.2083 14.5042 78.7698 13.9334 78.0003 13.9334C77.2278 13.9334 76.7933 14.5042 76.7933 15.4803C76.7933 16.4642 77.2278 17.0306 78.0003 17.0306C78.7698 17.0306 79.2083 16.4602 79.2083 15.4803H79.2083Z" fill="white"/>
<path d="M81.0586 16.4602C81.0586 15.6496 81.6621 15.1824 82.7334 15.116L83.9531 15.0456V14.657C83.9531 14.1814 83.6387 13.9128 83.0312 13.9128C82.5352 13.9128 82.1914 14.095 82.0928 14.4133H81.2324C81.3232 13.6399 82.0508 13.1438 83.0723 13.1438C84.2012 13.1438 84.8379 13.7058 84.8379 14.657V17.7336H83.9824V17.1008H83.9121C83.7694 17.3278 83.569 17.5129 83.3314 17.6371C83.0937 17.7613 82.8274 17.8202 82.5596 17.8078C82.3705 17.8275 82.1795 17.8073 81.9987 17.7486C81.818 17.6899 81.6515 17.594 81.5101 17.467C81.3687 17.3401 81.2554 17.1849 81.1777 17.0115C81.0999 16.838 81.0593 16.6503 81.0586 16.4602ZM83.9531 16.0754V15.699L82.8535 15.7693C82.2334 15.8108 81.9521 16.0217 81.9521 16.4187C81.9521 16.824 82.3037 17.0598 82.7871 17.0598C82.9288 17.0741 83.0719 17.0598 83.2079 17.0177C83.3439 16.9757 83.47 16.9066 83.5788 16.8148C83.6876 16.723 83.7768 16.6102 83.8411 16.4831C83.9054 16.3561 83.9435 16.2175 83.9531 16.0754Z" fill="white"/>
<path d="M86.0049 15.4802C86.0049 14.0574 86.7363 13.156 87.874 13.156C88.1554 13.1431 88.4347 13.2105 88.6793 13.3504C88.9238 13.4902 89.1234 13.6969 89.2549 13.946H89.3213V11.4729H90.21V17.7336H89.3584V17.0222H89.2881C89.1465 17.2697 88.9399 17.4737 88.6906 17.6122C88.4414 17.7507 88.159 17.8184 87.874 17.8078C86.7285 17.8079 86.0049 16.9065 86.0049 15.4802ZM86.9229 15.4802C86.9229 16.4353 87.3731 17.01 88.126 17.01C88.875 17.01 89.3379 16.427 89.3379 15.4841C89.3379 14.5457 88.8702 13.9544 88.126 13.9544C87.3779 13.9544 86.9229 14.533 86.9229 15.4802H86.9229Z" fill="white"/>
<path d="M93.887 15.4802C93.8587 15.1843 93.8925 14.8857 93.9864 14.6036C94.0802 14.3216 94.232 14.0622 94.4319 13.8422C94.6319 13.6222 94.8756 13.4465 95.1474 13.3262C95.4193 13.2059 95.7133 13.1438 96.0105 13.1438C96.3078 13.1438 96.6018 13.2059 96.8736 13.3262C97.1455 13.4465 97.3892 13.6222 97.5891 13.8422C97.7891 14.0622 97.9408 14.3216 98.0347 14.6036C98.1285 14.8857 98.1624 15.1843 98.1341 15.4802C98.1629 15.7764 98.1295 16.0754 98.0359 16.3579C97.9423 16.6404 97.7906 16.9002 97.5906 17.1207C97.3906 17.3411 97.1467 17.5172 96.8746 17.6377C96.6025 17.7583 96.3082 17.8205 96.0105 17.8205C95.7129 17.8205 95.4186 17.7583 95.1465 17.6377C94.8743 17.5172 94.6304 17.3411 94.4304 17.1207C94.2304 16.9002 94.0788 16.6404 93.9852 16.3579C93.8916 16.0754 93.8582 15.7764 93.887 15.4802ZM97.22 15.4802C97.22 14.5041 96.7815 13.9333 96.012 13.9333C95.2395 13.9333 94.805 14.5041 94.805 15.4802C94.805 16.4641 95.2396 17.0305 96.012 17.0305C96.7815 17.0305 97.22 16.4602 97.22 15.4802Z" fill="white"/>
<path d="M99.3262 13.2308H100.182V13.9461H100.248C100.361 13.6892 100.551 13.4738 100.792 13.33C101.032 13.1862 101.312 13.1211 101.592 13.1438C101.811 13.1274 102.031 13.1604 102.235 13.2405C102.44 13.3206 102.624 13.4457 102.774 13.6065C102.923 13.7674 103.035 13.9598 103.1 14.1697C103.165 14.3795 103.183 14.6013 103.15 14.8186V17.7336H102.262V15.0418C102.262 14.3182 101.947 13.9583 101.29 13.9583C101.141 13.9514 100.993 13.9767 100.855 14.0325C100.717 14.0883 100.592 14.1734 100.49 14.2818C100.388 14.3901 100.311 14.5193 100.263 14.6605C100.216 14.8016 100.199 14.9513 100.215 15.0994V17.7337H99.3262V13.2308Z" fill="white"/>
<path d="M108.173 12.1096V13.2512H109.148V13.9998H108.173V16.3152C108.173 16.7869 108.367 16.9934 108.81 16.9934C108.923 16.993 109.036 16.9862 109.148 16.9729V17.7131C108.989 17.7417 108.827 17.7569 108.665 17.7585C107.677 17.7585 107.283 17.4109 107.283 16.5427V13.9997H106.568V13.2512H107.283V12.1096H108.173Z" fill="white"/>
<path d="M110.361 11.4729H111.242V13.9544H111.312C111.431 13.695 111.626 13.4784 111.872 13.3341C112.117 13.1897 112.401 13.1247 112.685 13.1477C112.903 13.1358 113.121 13.1722 113.324 13.2543C113.526 13.3363 113.708 13.462 113.856 13.6223C114.004 13.7827 114.115 13.9737 114.181 14.1819C114.246 14.39 114.265 14.6101 114.236 14.8264V17.7337H113.347V15.0457C113.347 14.3264 113.012 13.9622 112.384 13.9622C112.231 13.9496 112.077 13.9706 111.934 14.0237C111.79 14.0767 111.659 14.1606 111.551 14.2693C111.443 14.378 111.361 14.5091 111.308 14.6532C111.256 14.7973 111.236 14.9511 111.25 15.1038V17.7336H110.361L110.361 11.4729Z" fill="white"/>
<path d="M119.419 16.5179C119.298 16.9294 119.036 17.2854 118.68 17.5236C118.323 17.7617 117.894 17.8669 117.467 17.8206C117.171 17.8285 116.876 17.7716 116.603 17.6541C116.331 17.5366 116.087 17.3612 115.889 17.14C115.691 16.9189 115.544 16.6573 115.457 16.3735C115.371 16.0897 115.347 15.7904 115.387 15.4964C115.348 15.2015 115.372 14.9016 115.459 14.6169C115.545 14.3323 115.692 14.0695 115.889 13.8464C116.086 13.6233 116.328 13.4452 116.6 13.324C116.871 13.2028 117.166 13.1413 117.464 13.1439C118.716 13.1439 119.472 13.9999 119.472 15.4139V15.724H116.293V15.7738C116.279 15.939 116.299 16.1053 116.354 16.2621C116.408 16.4188 116.494 16.5625 116.607 16.684C116.72 16.8055 116.857 16.902 117.009 16.9674C117.162 17.0328 117.326 17.0656 117.492 17.0638C117.704 17.0893 117.92 17.051 118.111 16.9538C118.301 16.8566 118.459 16.7048 118.563 16.5179L119.419 16.5179ZM116.293 15.0667H118.567C118.578 14.9156 118.558 14.7638 118.507 14.6211C118.456 14.4784 118.376 14.3479 118.271 14.238C118.167 14.1282 118.041 14.0414 117.901 13.9832C117.761 13.925 117.61 13.8968 117.459 13.9002C117.305 13.8983 117.152 13.9272 117.01 13.9851C116.868 14.043 116.738 14.1289 116.63 14.2376C116.521 14.3463 116.435 14.4757 116.377 14.6181C116.319 14.7605 116.291 14.913 116.293 15.0667H116.293Z" fill="white"/>
</svg>
