<svg width="150" height="150" viewBox="0 0 150 150" fill="none" xmlns="http://www.w3.org/2000/svg">
<path d="M140.354 34.5H9.64641C4.31885 34.5 0 38.7929 0 44.0886V105.557C0 110.852 4.31885 115.145 9.64641 115.145H140.354C145.681 115.145 150 110.852 150 105.557V44.0886C150 38.7929 145.681 34.5 140.354 34.5Z" fill="white"/>
<path d="M141.268 34.5H8.71999C3.90257 34.5 0 38.3792 0 43.1677V60.2268H150V43.1677C150 38.3792 146.097 34.5 141.28 34.5H141.268Z" fill="#7080EC"/>
<path d="M142.055 101.585C143.827 103.899 141.198 106.512 138.87 104.751C137.099 102.437 139.727 99.8243 142.055 101.585Z" fill="#521B39"/>
<path d="M142.043 44.9058C143.815 47.2195 141.186 49.8324 138.859 48.0713C137.087 45.7576 139.716 43.1446 142.043 44.9058Z" fill="#521B39"/>
<path d="M11.1283 101.585C12.9001 103.899 10.2713 106.512 7.94368 104.751C6.17189 102.437 8.80063 99.8243 11.1283 101.585Z" fill="#521B39"/>
<path d="M11.1283 44.9058C12.9001 47.2195 10.2713 49.8324 7.94368 48.0713C6.17189 45.7576 8.80063 43.1446 11.1283 44.9058Z" fill="#521B39"/>
<path d="M35.7833 45.0325H26.8317C24.427 45.0325 22.4775 46.9702 22.4775 49.3606C22.4775 51.7509 24.427 53.6886 26.8317 53.6886H35.7833C38.1881 53.6886 40.1375 51.7509 40.1375 49.3606C40.1375 46.9702 38.1881 45.0325 35.7833 45.0325Z" fill="#F3B9B8"/>
<path d="M28.8589 92.8948L20.1505 72.1867H20.0463V92.8948H17.707V68.0083H20.7874L29.4495 88.7164H29.5537V68.0083H31.8235V92.8948H28.8589Z" fill="#521B39" stroke="#521B39" stroke-miterlimit="10"/>
<path d="M50.3868 92.8948L45.3262 81.8559L40.2656 92.8948H37.6484L43.9829 79.7839L38.2854 68.0083H40.9025L45.3957 77.8501L49.8541 68.0083H52.4018L46.739 79.8185L53.0734 92.8948H50.3868Z" fill="#521B39" stroke="#521B39" stroke-miterlimit="10"/>
<path d="M71.15 74.7537C71.15 75.9048 70.9763 76.9177 70.6405 77.7925C70.2931 78.6674 69.8414 79.4041 69.274 79.9911C68.7066 80.5782 68.0581 81.0271 67.3053 81.3264C66.5526 81.6257 65.7883 81.7868 64.9893 81.7868H61.3067V92.8948H58.8633V68.0083H64.7692C65.4988 68.0083 66.2399 68.1119 66.9927 68.3306C67.7454 68.5378 68.4286 68.9061 69.0424 69.4356C69.6561 69.9651 70.1541 70.6558 70.5478 71.5306C70.9416 72.3939 71.1268 73.476 71.1268 74.7652L71.15 74.7537ZM68.7066 74.7767C68.7066 73.9594 68.6023 73.2573 68.3939 72.6587C68.1854 72.0601 67.8844 71.5767 67.5138 71.2083C67.1316 70.84 66.7032 70.5637 66.2168 70.3795C65.7304 70.2069 65.2093 70.1148 64.6419 70.1148H61.3183V79.6803H64.6766C65.7883 79.6803 66.7379 79.2774 67.5254 78.4717C68.3128 77.6659 68.7066 76.4343 68.7066 74.7767Z" fill="#521B39" stroke="#521B39" stroke-miterlimit="10"/>
<path d="M97.5884 75.4903C97.5884 76.6183 97.4379 77.7464 97.1252 78.886C96.8241 80.0256 96.3841 81.1882 95.8167 82.3853L90.7561 92.8947H88.1042L93.5816 81.8903L93.5122 81.8558C92.7363 82.6731 91.6477 83.0875 90.2581 83.0875C89.5517 83.0875 88.8453 82.9493 88.1389 82.6616C87.4325 82.3738 86.7956 81.9364 86.2281 81.3263C85.6607 80.7162 85.1975 79.9335 84.8501 78.9666C84.5027 78.0112 84.3174 76.8486 84.3174 75.4903C84.3174 74.2931 84.4795 73.2111 84.7922 72.2327C85.1048 71.2658 85.5565 70.4255 86.1355 69.7348C86.7145 69.0442 87.4093 68.5147 88.22 68.1348C89.0306 67.755 89.9454 67.5708 90.9645 67.5708C93.0374 67.5708 94.6586 68.2845 95.8282 69.7003C96.9978 71.1161 97.5769 73.05 97.5769 75.4788L97.5884 75.4903ZM95.1103 75.4212C95.1103 73.7061 94.7397 72.3133 94.0101 71.2428C93.2806 70.1607 92.2499 69.6197 90.9298 69.6197C89.6096 69.6197 88.5905 70.1607 87.8725 71.2543C87.1546 72.3478 86.7956 73.7291 86.7956 75.4212C86.7956 76.2385 86.8882 76.9982 87.0619 77.7119C87.2356 78.414 87.502 79.0126 87.8378 79.5191C88.1736 80.0256 88.6021 80.4169 89.1116 80.6932C89.6212 80.9695 90.2118 81.1191 90.895 81.1191C91.5319 81.1191 92.1109 80.9695 92.6321 80.6817C93.1532 80.3939 93.5932 79.991 93.9638 79.4846C94.3344 78.9781 94.6123 78.3795 94.8092 77.6889C95.006 76.9982 95.1103 76.2385 95.1103 75.4212Z" fill="#521B39" stroke="#521B39" stroke-miterlimit="10"/>
<path d="M116.904 86.1033C116.904 87.1853 116.754 88.1638 116.441 89.0386C116.128 89.9134 115.688 90.6731 115.109 91.3062C114.53 91.9393 113.824 92.4343 113.002 92.7796C112.179 93.1365 111.253 93.3091 110.245 93.3091C109.238 93.3091 108.323 93.1365 107.501 92.7796C106.69 92.4228 105.995 91.9393 105.428 91.3062C104.861 90.6731 104.421 89.9134 104.119 89.0386C103.818 88.1638 103.656 87.1853 103.656 86.1033C103.656 84.4112 104.015 83.0184 104.722 81.9249C105.428 80.8198 106.424 80.0601 107.698 79.6342V79.5651C106.563 79.0932 105.706 78.368 105.139 77.3896C104.56 76.3996 104.27 75.2486 104.27 73.9133C104.27 73.05 104.397 72.2212 104.641 71.45C104.884 70.6787 105.266 69.9996 105.775 69.4241C106.285 68.8485 106.91 68.3996 107.651 68.0658C108.393 67.732 109.261 67.5708 110.257 67.5708C111.253 67.5708 112.11 67.732 112.863 68.0658C113.615 68.3996 114.229 68.8485 114.739 69.4241C115.248 69.9996 115.63 70.6672 115.885 71.45C116.14 72.2327 116.279 73.05 116.279 73.9133C116.279 75.2486 116.001 76.4111 115.433 77.3896C114.866 78.3795 114.021 79.1047 112.886 79.5651V79.6342C114.16 80.1061 115.144 80.8774 115.862 81.9594C116.568 83.0414 116.927 84.4227 116.927 86.1033H116.904ZM114.356 85.9997C114.356 84.4112 113.974 83.1105 113.222 82.109C112.469 81.1076 111.473 80.6126 110.245 80.6126C109.018 80.6126 108.034 81.1076 107.269 82.109C106.517 83.1105 106.134 84.3997 106.134 85.9997C106.134 86.7479 106.227 87.4501 106.412 88.1062C106.598 88.7623 106.876 89.3264 107.223 89.8098C107.582 90.2933 108.01 90.6616 108.508 90.9379C109.018 91.2026 109.585 91.3408 110.222 91.3408C110.859 91.3408 111.461 91.2026 111.971 90.9379C112.48 90.6731 112.909 90.2933 113.268 89.8098C113.627 89.3264 113.882 88.7623 114.067 88.1062C114.241 87.4501 114.333 86.7479 114.333 85.9997H114.356ZM113.824 74.0514C113.824 72.7162 113.511 71.6111 112.886 70.7478C112.26 69.8845 111.38 69.4471 110.245 69.4471C109.111 69.4471 108.207 69.8845 107.605 70.7478C107.003 71.6111 106.702 72.7162 106.702 74.0514C106.702 74.6845 106.783 75.2831 106.945 75.8471C107.107 76.4111 107.35 76.9061 107.651 77.3205C107.953 77.7464 108.323 78.0802 108.763 78.345C109.203 78.5982 109.69 78.7363 110.234 78.7363C110.778 78.7363 111.276 78.6097 111.716 78.345C112.168 78.0917 112.538 77.7464 112.851 77.3205C113.152 76.8946 113.395 76.4111 113.557 75.8471C113.72 75.2831 113.801 74.6845 113.801 74.0514H113.824Z" fill="#521B39" stroke="#521B39" stroke-miterlimit="10"/>
<path d="M135.503 85.0902C135.503 86.4025 135.341 87.5651 135.028 88.5895C134.715 89.614 134.275 90.4658 133.696 91.168C133.129 91.8701 132.434 92.4111 131.635 92.768C130.836 93.1363 129.956 93.309 129.018 93.309C127.466 93.309 126.169 92.9291 125.15 92.1694C124.119 91.4097 123.378 90.3277 122.903 88.9118L125.023 88.1406C125.405 89.096 125.914 89.8557 126.574 90.3852C127.234 90.9262 128.033 91.191 128.983 91.191C130.211 91.191 131.206 90.6615 131.994 89.591C132.77 88.5205 133.163 87.0471 133.163 85.1708C133.163 83.2945 132.77 81.9362 131.994 80.8312C131.218 79.7262 130.083 79.1736 128.601 79.1736C127.918 79.1736 127.188 79.2887 126.424 79.5075C125.659 79.7262 124.999 80.0139 124.455 80.3708L124.733 67.9966H134.646V70.1031H126.852L126.609 77.9074C127.014 77.7233 127.466 77.5621 127.976 77.4355C128.485 77.3089 128.937 77.2398 129.342 77.2398C130.407 77.2398 131.322 77.4355 132.087 77.8154C132.851 78.2067 133.488 78.7362 133.997 79.4384C134.507 80.1406 134.889 80.9578 135.132 81.9132C135.375 82.8686 135.503 83.9276 135.503 85.0787V85.0902Z" fill="#521B39" stroke="#521B39" stroke-miterlimit="10"/>
<path d="M48.637 46.2412C49.7024 46.2412 50.3393 46.6556 50.3393 47.6686C50.3393 48.4973 49.8066 48.9808 49.1928 49.0499V49.0844C49.4013 49.1765 49.575 49.3491 49.8066 49.729L50.7446 51.306H50.0498L49.1234 49.6945C48.9265 49.3607 48.7065 49.211 48.3359 49.211H47.9306V51.3175H47.3516V46.2527H48.6254L48.637 46.2412ZM47.9422 48.7045H48.5907C49.2971 48.7045 49.7371 48.4283 49.7371 47.7261C49.7371 47.024 49.3202 46.7477 48.5559 46.7477H47.9422V48.693V48.7045Z" fill="white"/>
<path d="M56.025 46.2412V51.306H55.446V49.0038H52.9794V51.306H52.4004V46.2412H52.9794V48.4858H55.446V46.2412H56.025Z" fill="white"/>
<path d="M59.8234 51.375C58.6075 51.375 57.8779 50.6614 57.8779 48.7966C57.8779 46.9318 58.6538 46.1721 59.8813 46.1721C61.1088 46.1721 61.8268 46.8858 61.8268 48.7506C61.8268 50.6153 61.0394 51.375 59.8234 51.375ZM59.8582 50.857C60.7035 50.857 61.2362 50.3621 61.2362 48.7966C61.2362 47.2311 60.6919 46.6901 59.8466 46.6901C59.0012 46.6901 58.4801 47.1736 58.4801 48.7506C58.4801 50.3275 59.0244 50.857 59.8697 50.857H59.8582Z" fill="white"/>
<path d="M63.6797 46.2412H65.0114C66.54 46.2412 67.2348 47.0239 67.2348 48.7276C67.2348 50.4312 66.5632 51.306 65.0114 51.306H63.6797V46.2412ZM64.2587 50.788H64.9998C66.1231 50.788 66.6442 50.2355 66.6442 48.7851C66.6442 47.3347 66.0536 46.7477 64.9651 46.7477H64.2587V50.788Z" fill="white"/>
<path d="M69.0879 51.306V46.2412H71.7861V46.7592H69.6669V48.4858H71.5313V49.0038H69.6669V50.7995H71.8903V51.3175H69.0879V51.306Z" fill="white"/>
<path d="M76.5342 46.2412H77.1132V51.306H76.5342V46.2412Z" fill="white"/>
<path d="M81.5252 50.0167C81.5252 48.8657 79.1049 49.1304 79.1049 47.5304C79.1049 46.7707 79.765 46.1721 80.6799 46.1721C81.2589 46.1721 81.6989 46.3563 81.9884 46.598L81.6295 47.0469C81.3747 46.8397 81.062 46.7016 80.6335 46.7016C80.0429 46.7016 79.684 47.0354 79.684 47.4959C79.684 48.67 82.1042 48.4167 82.1042 49.9822C82.1042 50.7534 81.4905 51.3865 80.4019 51.3865C79.6376 51.3865 79.1049 51.1103 78.8154 50.857L79.1513 50.3966C79.4292 50.6268 79.8461 50.8686 80.4483 50.8686C81.1431 50.8686 81.5136 50.4887 81.5136 50.0283L81.5252 50.0167Z" fill="white"/>
<path d="M84.455 46.2412V50.788H86.6437V51.306H83.876V46.2412H84.455Z" fill="white"/>
<path d="M90.0944 46.2412L91.7388 51.306H91.1251L90.6503 49.8326H88.6006L88.1258 51.306H87.5352L89.1796 46.2412H90.0828H90.0944ZM88.7858 49.3146H90.4997L89.9555 47.611C89.9207 47.4729 89.6775 46.7362 89.6544 46.6326H89.6196C89.608 46.7247 89.3649 47.4614 89.3301 47.588L88.7743 49.3031L88.7858 49.3146Z" fill="white"/>
<path d="M93.7427 46.9319C93.7542 47.0355 93.7658 48.0945 93.7658 48.2786V51.306H93.21V46.2412H94.0206L95.7345 49.4527C95.7808 49.5563 96.2788 50.4887 96.3251 50.5923H96.3714C96.3598 50.4427 96.3598 49.3491 96.3598 49.234V46.2412H96.9041V51.306H96.105L94.3796 48.0829C94.3333 47.9794 93.8469 47.0585 93.8006 46.9319H93.7427Z" fill="white"/>
<path d="M99.0117 46.2412H100.343C101.872 46.2412 102.567 47.0239 102.567 48.7276C102.567 50.4312 101.895 51.306 100.343 51.306H99.0117V46.2412ZM99.5907 50.788H100.332C101.455 50.788 101.976 50.2355 101.976 48.7851C101.976 47.3347 101.386 46.7477 100.297 46.7477H99.5907V50.788Z" fill="white"/>
<path d="M77.4032 84.5148C78.58 84.5148 79.534 83.5665 79.534 82.3968C79.534 81.2271 78.58 80.2788 77.4032 80.2788C76.2264 80.2788 75.2725 81.2271 75.2725 82.3968C75.2725 83.5665 76.2264 84.5148 77.4032 84.5148Z" fill="#C8D1FF"/>
</svg>
