<svg xmlns="http://www.w3.org/2000/svg" width="296" height="295" fill="none"><path fill="#5F77ED" d="M230.962 77.908c36.921 32.63 72.961 80.583 62.791 115.441-10.421 34.906-67.052 56.718-124.168 66.801-57.115 10.092-114.714 8.455-141.068-21.357-26.306-29.56-21.105-87.334-.659-130.105 20.204-42.703 55.856-70.704 92.38-75.76 36.475-5.297 74.055 12.301 110.724 44.98Z"/><path fill="#C3CAFA" d="M247.96 107.69c24.998 42.452 44.437 99.209 23.972 129.214-20.708 29.967-81.31 33.173-138.745 25.086-57.434-8.088-111.692-27.478-127.528-63.973-15.855-36.253 6.964-89.581 39.652-123.916 32.437-34.364 74.995-49.957 111.286-43.458 36.321 6.247 66.617 34.625 91.363 77.047Z"/><mask id="a" width="281" height="237" x="0" y="29" maskUnits="userSpaceOnUse" style="mask-type:luminance"><path fill="#fff" d="M247.96 107.69c24.998 42.452 44.437 99.209 23.972 129.214-20.708 29.967-81.31 33.173-138.745 25.086-57.434-8.088-111.692-27.478-127.528-63.973-15.855-36.253 6.964-89.581 39.652-123.916 32.437-34.364 74.995-49.957 111.286-43.458 36.321 6.247 66.617 34.625 91.363 77.047Z"/></mask><g mask="url(#a)"><path fill="#DFE2F3" d="M190.913 239.374c.988-13.085 10.16-22.732 17.879-31.168 8.194-8.968 17.202-17.269 23.333-28.301 9.908-17.84 10.208-37.502-1.686-54.209-6.654-9.347-16.707-14.964-26.596-18.713-18.858-7.157-38.248-7.099-57.938-7.36-15.546-.204-31.178-.02-46.694-1.182-17.347-1.308-12.494-13.192-12.204-17.763.91-14.403-16.504-17.482-33.134-17.57-6.053-.029-29.075.872-34.577.184-3.022-.377-8.397-1.25-8.223-5.87.233-6.062 9.705-6.314 9.705-6.314l-3.41-7.303c-.474.63-2.072 1.821-6.479 4.126-4.765 2.49-8.097 8.417-6.082 14.315 2.266 6.625 9.646 7.894 15.148 8.107 5.094.194 19.603 0 31.526-.242 0 0 19.497-1.647 17.482 10.944-1.026 6.383-4.63 16.456-1.298 23.323 7.72 15.923 26.267 12.669 40.273 12.872 23.467.329 29.579.688 53.047.659 9.705-.01 22.77 3.031 22.77 14.586 0 15.129-17.424 20.465-27.051 24.872-16.775 7.681-33.444 16.863-47.846 29.396-19.846 17.288-30.393 39.671-34.18 64.95 13.753 3.817 28.117 6.838 42.654 9.144 28.098 4.465 56.844 6.276 82.443 3.883-5.53-7.109-9.647-15.031-8.862-25.366Z"/><path fill="#C3CAFA" d="m17.04 43.098.319.688c.523-.697-.32-.688-.32-.688Z"/></g><path fill="#D87D7D" d="m169.498 204.138 3.739-7.477a2.995 2.995 0 0 1 3.264-1.598l8.058 1.608a1.992 1.992 0 0 1 1.598 1.956v1.734a1.93 1.93 0 0 1-1.317 1.831l-12.959 4.319-2.383-2.382v.009Z"/><path fill="#080D52" d="M96.16 233.427h10.606v10.693c0 .484-.194.949-.533 1.288a1.826 1.826 0 0 1-1.288.533H98c-.484 0-.949-.194-1.288-.533a1.877 1.877 0 0 1-.542-1.288v-10.702l-.01.009ZM168.152 232.962h10.606v10.693c0 .242-.048.475-.136.698a1.62 1.62 0 0 1-.397.59c-.174.175-.368.31-.591.397a1.91 1.91 0 0 1-.697.146h-6.944c-.485 0-.95-.194-1.289-.533a1.825 1.825 0 0 1-.532-1.288v-10.703h-.02Z"/><path fill="#D87D7D" d="M174.506 221.882h-74.104c-3.1 0-5.21-3.293-3.767-6.024l14.441-29.182a11.612 11.612 0 0 1 10.286-6.199h32.184c2.122 0 4.194.581 6.005 1.666a11.66 11.66 0 0 1 4.281 4.533l14.441 29.182c1.444 2.741-.668 6.024-3.767 6.024Z"/><path fill="#D87D7D" d="M96.16 233.398v-17.676a8.54 8.54 0 0 1 .659-3.293 8.507 8.507 0 0 1 1.87-2.789 8.657 8.657 0 0 1 2.798-1.87 8.606 8.606 0 0 1 3.303-.658h65.357a8.611 8.611 0 0 1 8.621 8.601v17.675c0 .62-3.913 4.533-4.533 4.533h-73.523"/><path fill="#fff" d="M168.297 201.078H106.61l5.599-11.942c1.51-3.691 4.813-6.48 8.862-6.48h32.775c4.049 0 7.294 2.431 8.863 6.48l5.598 11.942h-.01Z"/><path fill="#F3D66C" d="M113.826 221.127c-1.298-2.131-4.407-6.703-7.128-6.557l-3.274-.126-1.017-.039a1.459 1.459 0 0 0-1.511 1.569c.116 1.734.378 3.341.378 3.341 0 1.201.91 2.209 2.102 2.344h.067l9.783.465c.532.029.881-.552.61-1.017l-.01.02ZM161.092 221.127c-.281.455.067 1.036.61 1.017l9.782-.465a2.364 2.364 0 0 0 2.17-2.354s.252-1.608.377-3.341a1.468 1.468 0 0 0-1.51-1.569l-4.281.164c-2.722-.145-5.831 4.427-7.129 6.557l-.019-.009Z"/><path fill="#4F62D5" d="M148.045 222.579h-21.182c-3.216 0-6.083-1.908-7.168-4.774l-1.288-3.41H156.5l-1.288 3.41c-1.085 2.866-3.952 4.774-7.167 4.774Z"/><path fill="#080D52" d="M155.212 214.531c-1.085 2.867-3.952 4.775-7.167 4.775h-21.182c-3.216 0-6.083-1.908-7.168-4.775l-.048-.126h-1.24l1.288 3.409c1.075 2.867 3.952 4.775 7.168 4.775h21.182c3.215 0 6.092-1.908 7.167-4.775l1.288-3.409h-1.24l-.048.126Z"/><path fill="#D65656" d="M96.17 227.974v5.201a4.727 4.727 0 0 0 4.736 4.746h73.096a4.741 4.741 0 0 0 4.746-4.746v-5.201H96.16h.01Z"/><path fill="#D87D7D" d="m105.255 204.322-3.739-7.477a2.997 2.997 0 0 0-3.264-1.598l-8.058 1.608a1.992 1.992 0 0 0-1.598 1.956v1.734a1.93 1.93 0 0 0 1.317 1.831l12.959 4.319 2.383-2.382v.009Z"/><path fill="#DD7D7D" d="M245.278 193.175h-1.744c0 3.825-2.702 7.022-6.295 7.796v-14.315h-5.734v38.665h5.734v-22.577c4.552-.804 8.029-4.785 8.029-9.569h.01Z"/><path fill="#29662A" d="M260.561 173.532c0-5.094-3.68-9.327-8.523-10.198a8.45 8.45 0 0 0 .329-2.335c0-4.455-3.438-8.097-7.806-8.436.203-.804.32-1.656.32-2.528 0-5.578-4.524-10.111-10.112-10.111a10.106 10.106 0 0 0-10.112 10.111c0 .872.107 1.715.32 2.528-4.368.339-7.807 3.981-7.807 8.436 0 .814.117 1.589.33 2.335-4.843.871-8.523 5.104-8.523 10.198 0 5.356 4.058 9.754 9.269 10.306a8.36 8.36 0 0 0-.155 1.646 8.675 8.675 0 0 0 8.678 8.678 8.677 8.677 0 0 0 8.01-5.336 8.681 8.681 0 0 0 8.01 5.336 8.676 8.676 0 0 0 8.678-8.678c0-.561-.058-1.114-.155-1.646a10.359 10.359 0 0 0 9.269-10.306h-.02Z"/><path fill="#546659" d="M237.616 232.313a60.6 60.6 0 0 0-.329-11.322c-.107-.833-.252-1.734-.94-2.276-.387-.31-.92-.407-1.365-.184-.514.262-.581.775-.63 1.249l-.523 5.202c-.717-3.7-3.303-9.657-5.598-12.698-.649-.862-1.995-.019-1.482.939 0 .01.01.02.019.029.591 2.315 1.376 6.441 1.434 9.163-1.957-2.896-2.499-4.446-5.317-6.431-.824-.581-1.86.407-1.308 1.259 0 0 0 .019.01.019 2.818 4.339 4.455 10.344 5.269 15.458l10.741-.407h.019Z"/><path fill="#D0E3D6" d="M238.168 229.97c-1.724-4.533-.639-9.589.465-14.316.107-.464.223-.949.504-1.336.281-.388.775-.659 1.24-.543.503.136.794.659.997 1.143a14.227 14.227 0 0 1 1.066 4.514 9.835 9.835 0 0 1 1.152-4.146c.378-.697 1.007-1.443 1.802-1.336 1.046.145 1.288 1.54 1.259 2.595a250.68 250.68 0 0 1-.92 15.255l-7.565-1.84v.01Z"/><path fill="#91B39C" d="M248.396 232.933c1.25.01 2.509-.096 3.729-.358a26.79 26.79 0 0 0 7.313-2.741c.436-.242.668-.794.455-1.24-.252-.552-.901-.484-1.424-.368a28.998 28.998 0 0 0-5.578 1.86 12.486 12.486 0 0 0 4.62-5.046c.164-.33.125-.746-.136-.998-.378-.368-.901-.106-1.298.145a129.726 129.726 0 0 0-5.898 4.049 20.847 20.847 0 0 0 3.39-6.935c.184-.668.009-1.424-.523-1.869-1.076-.891-2.509.32-3.323 1.414l-6.189 8.359a15.31 15.31 0 0 0 1.318-6.858 1.181 1.181 0 0 0-.184-.717c-.436-.532-1.279-.038-1.724.485a20.191 20.191 0 0 0-4.281 8.116 7.14 7.14 0 0 0-.32-5.821c-.184-.348-.436-.716-.823-.784-.746-.126-1.133.852-1.23 1.607l-.552 4.388a9.52 9.52 0 0 0-3.768-6.731c-.533-.388-1.279-.727-1.811-.339-.446.319-.475.939-.446 1.481a13.382 13.382 0 0 0 1.56 5.473c-.891-2.761-2.063-4.581-4.853-5.066-.726-.126-1.889.397-2.334 1.55-.291.755-.213 1.821.426 3.157a10.544 10.544 0 0 0-7.525-6.121c-.291-.058-.611-.097-.843.087-.368.281-.252.843-.087 1.279a32.655 32.655 0 0 0 3.215 6.392c.794 1.221 2.16 1.937 3.613 1.957l25.521.213-.01-.02Z"/><path fill="#DD7D7D" d="M36.634 128.418h-1.317a6.062 6.062 0 0 1-3.904 5.666l-.038-15.449h-3.129l.039 15.487a6.049 6.049 0 0 1-4.01-5.666h-1.317c0 3.351 2.266 6.17 5.327 7.051l.03 12.388h3.127l-.029-12.417c3.022-.92 5.22-3.738 5.211-7.051l.01-.009Z"/><path fill="#223F24" d="M34.154 80.194s-.494-.562-.785-.795c-.048-.038-.096-.087-.154-.135a5.854 5.854 0 0 0-3.545-1.172 5.81 5.81 0 0 0-3.536 1.181c-.048.04-.096.078-.145.126-.261.223-.726.717-.726.717-18.664 23.613-10.18 40.679-10.18 40.679 2.267 5.327 8.01 9.104 14.732 9.085 7.119-.019 13.114-4.281 15.041-10.121 1.414-3.894 5.395-19.362-10.702-39.585v.02Z"/><path fill="#546659" d="M22.125 153.551a36.714 36.714 0 0 1-1.492-6.595c-.068-.494-.106-1.037.204-1.463.174-.232.474-.378.765-.31.339.078.455.358.552.63l1.075 2.925c-.165-2.732.261-4.456 1.307-6.867.155-.349.61-.456.891-.204.213.194.32.494.223.882a13.511 13.511 0 0 0-.28 4.91c.716-2.005 1.54-4.068 2.924-5.646.378-.436 1.075-.039.901.503-.02.049-.029.097-.048.146-.988 2.934-1.046 6.644-.746 9.724l-6.276 1.356v.009Z"/><path fill="#D0E3D6" d="M38.106 144.98c-.068-.281-.281-.543-.562-.582-.31-.038-.59.185-.814.407a8.626 8.626 0 0 0-1.617 2.247c.29-.813.397-1.695.31-2.557a2.212 2.212 0 0 0-.165-.649v-.048c-.068-.281-.28-.542-.562-.581-.31-.039-.59.184-.813.407a8.61 8.61 0 0 0-1.618 2.247c.291-.814.398-1.695.31-2.557-.048-.475-.232-1.027-.687-1.143-.61-.155-1.066.552-1.289 1.152a151.438 151.438 0 0 0-2.963 8.64l3.07.465c-.077.232-.155.465-.223.707l4.6.697c1.986-2.111 2.538-5.153 2.994-8.01.048-.281.087-.571.029-.852v.01Z"/><path fill="#91B39C" d="M19.17 150.336c-.338-1.221-.503-2.625-.144-4.02.038-.135.106-.271.222-.348.63-.407 1.434.281 1.899.9l3.7 4.998a9.156 9.156 0 0 1-.785-4.097c0-.145.03-.3.107-.426.261-.32.765-.019 1.036.291a12.02 12.02 0 0 1 2.557 4.852 4.233 4.233 0 0 1 .194-3.477c.106-.203.261-.426.494-.465.445-.077.678.513.736.959l.329 2.615a5.652 5.652 0 0 1 2.257-4.019c.32-.233.765-.436 1.084-.204.262.194.281.562.262.881a8.107 8.107 0 0 1-.93 3.274 6.12 6.12 0 0 1 3.138-3.622c.717-.349 1.56.213 1.52 1.007a6.238 6.238 0 0 1-.61 2.392c.088-.184.33-.377.466-.532.145-.175.3-.339.445-.504.271-.29.552-.571.881-.814.591-.435 1.763-1.181 2.412-.464.175.193.252.455.252.716 0 .707-.446 1.56-.843 2.141-.164.232-.348.436-.523.649-.116.135-.232.271-.339.407-.058.077-.348.542-.426.542l-14.373.116a5.15 5.15 0 0 1-4.998-3.738l-.02-.01Z"/><path fill="#4F62DC" d="M74.532 122.151h-.01a2.392 2.392 0 0 0-2.392 2.392v113.126a2.392 2.392 0 0 0 2.392 2.393h.01a2.392 2.392 0 0 0 2.392-2.393V124.543a2.392 2.392 0 0 0-2.392-2.392Z"/><path fill="#4F62DC" d="M201.015 148.65v-5.24H67.2v5.24h133.815ZM201.024 133.289v-5.24H66.929v5.24h134.095Z"/><path fill="#4F62DC" d="M191.688 122.257v115.625c0 1.201.978 2.18 2.179 2.18a2.183 2.183 0 0 0 2.179-2.18V122.257H191.688ZM110.444 133.143l-.924-1.602-20.668 11.933.925 1.602 20.667-11.933Z"/><path fill="#4F62DC" d="m90.153 131.549-.925 1.602 20.298 11.719.925-1.602-20.298-11.719Z"/><path fill="#4F62DC" d="M75.578 141.067a.932.932 0 0 1 .34-1.269l13.288-7.797a.932.932 0 0 1 1.268.339.933.933 0 0 1-.339 1.269l-13.288 7.797a.934.934 0 0 1-1.269-.339Z"/><path fill="#4F62DC" d="m76.033 133.744-.93 1.608 14.103 9.056a.932.932 0 0 0 1.268-.339.933.933 0 0 0-.339-1.269l-14.102-9.056ZM128.934 133.153l-.925-1.602-20.299 11.72.925 1.602 20.299-11.72Z"/><path fill="#4F62DC" d="m108.637 131.546-.925 1.602 20.299 11.72.925-1.602-20.299-11.72Z"/><path fill="#4F62DC" d="m147.422 133.147-.925-1.602-20.299 11.72.925 1.602 20.299-11.72Z"/><path fill="#4F62DC" d="m127.116 131.552-.925 1.602 20.299 11.719.925-1.602-20.299-11.719Z"/><path fill="#4F62DC" d="m165.907 133.15-.925-1.602-20.298 11.719.925 1.602 20.298-11.719Z"/><path fill="#4F62DC" d="m145.611 131.55-.925 1.602 20.298 11.719.925-1.602-20.298-11.719Z"/><path fill="#4F62DC" d="m184.393 133.152-.925-1.602-20.299 11.719.925 1.602 20.299-11.719Z"/><path fill="#4F62DC" d="m164.096 131.547-.925 1.602 20.299 11.72.924-1.602-20.298-11.72Z"/><path fill="#4F62DC" d="m193.615 138.5-11.032 6.373-.92-1.608 11.594-6.692.358 1.927Z"/><path fill="#4F62DC" d="m193.16 137.657-10.577-6.111-.92 1.608 10.819 6.247.678-1.744ZM79.84 185.91H69.01v22.035h10.83V185.91ZM93.727 151.711h-7.235v5.424h7.235v-5.424Z"/><path fill="#4F62DC" d="M90.841 148.079h-1.617v4.6h1.617v-4.6ZM107.472 151.856h-7.235v5.424h7.235v-5.424Z"/><path fill="#4F62DC" d="M104.586 148.234h-1.617v4.6h1.617v-4.6ZM121.224 152.001h-7.235v5.424h7.235v-5.424Z"/><path fill="#4F62DC" d="M118.328 148.379h-1.617v4.601h1.617v-4.601ZM134.969 152.156h-7.235v5.424h7.235v-5.424Z"/><path fill="#4F62DC" d="M132.083 148.524h-1.617v4.601h1.617v-4.601Z"/></svg>