<svg xmlns="http://www.w3.org/2000/svg" width="150" height="150" fill="none"><g clip-path="url(#a)"><path fill="#30428B" d="M106.936 40.558 9.1 53.89c-5.757.785-9.787 6.087-9.003 11.844l7.66 56.211c.785 5.757 6.087 9.787 11.844 9.003l97.836-13.333c5.756-.784 9.787-6.087 9.002-11.843l-7.66-56.211c-.784-5.757-6.087-9.788-11.843-9.003Z"/><path fill="#fff" d="M16.891 74.99a2.66 2.66 0 1 0 0-5.321 2.66 2.66 0 0 0 0 5.32ZM24.177 73.994a2.66 2.66 0 1 0 0-5.321 2.66 2.66 0 0 0 0 5.32ZM31.462 72.998a2.66 2.66 0 1 0 0-5.321 2.66 2.66 0 0 0 0 5.32ZM38.748 72.002a2.66 2.66 0 1 0 0-5.321 2.66 2.66 0 0 0 0 5.32ZM82.15 66.094a2.66 2.66 0 1 0 0-5.32 2.66 2.66 0 0 0 0 5.32ZM89.435 65.098a2.66 2.66 0 1 0 0-5.321 2.66 2.66 0 0 0 0 5.32ZM96.721 64.102a2.66 2.66 0 1 0 0-5.321 2.66 2.66 0 0 0 0 5.321ZM104.006 63.106a2.66 2.66 0 1 0 0-5.321 2.66 2.66 0 0 0 0 5.321ZM18.856 85.918a2.66 2.66 0 1 0 0-5.32 2.66 2.66 0 0 0 0 5.32ZM26.142 84.922a2.66 2.66 0 1 0 0-5.32 2.66 2.66 0 0 0 0 5.32Z"/><path fill="#8F9FE5" d="M26.838 112.783a1.377 1.377 0 0 1-1.351-1.187 1.357 1.357 0 0 1 1.173-1.528l69.884-9.251a1.348 1.348 0 0 1 1.528 1.174 1.357 1.357 0 0 1-1.173 1.528l-69.884 9.25h-.177v.014Z"/><path fill="#7080EA" d="M141.853 41.255 45.648 19.026c-5.66-1.308-11.31 2.221-12.618 7.882L20.26 82.182c-1.308 5.66 2.22 11.31 7.881 12.618l96.206 22.228c5.66 1.308 11.309-2.22 12.617-7.881l12.772-55.275c1.308-5.66-2.221-11.31-7.882-12.617Z"/><path fill="#fff" d="m48.38 29.201-.6-.136a5.815 5.815 0 0 0-6.971 4.352l-2.006 8.664a5.815 5.815 0 0 0 4.352 6.972l.6.136 4.626-20.002v.014ZM46.116 43.131l-1.446 6.276 7.163 1.651a5.815 5.815 0 0 0 6.972-4.352l.136-.614-12.825-2.96ZM47.619 36.603l-1.3 5.623 12.829 2.964 1.299-5.623-12.828-2.964ZM60.797 38.042a5.815 5.815 0 0 0-4.353-6.972l-7.163-1.65-1.446 6.276 12.825 2.96.137-.614Z"/><path fill="#172A8A" d="M110.282 105.661a9.374 9.374 0 1 0 0-18.748 9.374 9.374 0 0 0 0 18.748Z"/><path fill="#F3B9B8" d="M121.92 108.349a9.373 9.373 0 0 0 9.373-9.374 9.373 9.373 0 0 0-9.373-9.373 9.373 9.373 0 0 0-9.373 9.373 9.373 9.373 0 0 0 9.373 9.374Z"/><path fill="#fff" d="M41.778 62.478a2.66 2.66 0 1 0 0-5.32 2.66 2.66 0 0 0 0 5.32ZM48.94 64.13a2.66 2.66 0 1 0 0-5.322 2.66 2.66 0 0 0 0 5.321ZM56.104 65.794a2.66 2.66 0 1 0 0-5.321 2.66 2.66 0 0 0 0 5.32ZM63.267 67.445a2.66 2.66 0 1 0 0-5.321 2.66 2.66 0 0 0 0 5.32ZM105.945 77.296a2.66 2.66 0 1 0 0-5.321 2.66 2.66 0 0 0 0 5.32ZM113.108 78.96a2.66 2.66 0 1 0 0-5.32 2.66 2.66 0 0 0 0 5.32ZM120.271 80.61a2.66 2.66 0 1 0 0-5.32 2.66 2.66 0 0 0 0 5.32ZM127.434 82.262a2.661 2.661 0 1 0 0-5.323 2.661 2.661 0 0 0 0 5.323ZM81.713 71.701a2.66 2.66 0 1 0 0-5.32 2.66 2.66 0 0 0 0 5.32ZM88.876 73.366a2.66 2.66 0 1 0 0-5.321 2.66 2.66 0 0 0 0 5.321Z"/></g><defs><clipPath id="a"><path fill="#fff" d="M0 18.75h150v112.302H0z"/></clipPath></defs></svg>